<?xml version="1.0" encoding="utf-8" standalone="no"?>
<!DOCTYPE svg PUBLIC "-//W3C//DTD SVG 1.1//EN"
  "http://www.w3.org/Graphics/SVG/1.1/DTD/svg11.dtd">
<svg xmlns:xlink="http://www.w3.org/1999/xlink" width="720pt" height="259.2pt" viewBox="0 0 720 259.2" xmlns="http://www.w3.org/2000/svg" version="1.1">
 <metadata>
  <rdf:RDF xmlns:dc="http://purl.org/dc/elements/1.1/" xmlns:cc="http://creativecommons.org/ns#" xmlns:rdf="http://www.w3.org/1999/02/22-rdf-syntax-ns#">
   <cc:Work>
    <dc:type rdf:resource="http://purl.org/dc/dcmitype/StillImage"/>
    <dc:date>2026-03-09T22:07:29.732331</dc:date>
    <dc:format>image/svg+xml</dc:format>
    <dc:creator>
     <cc:Agent>
      <dc:title>Matplotlib v3.6.3, https://matplotlib.org/</dc:title>
     </cc:Agent>
    </dc:creator>
   </cc:Work>
  </rdf:RDF>
 </metadata>
 <defs>
  <style type="text/css">*{stroke-linejoin: round; stroke-linecap: butt}</style>
 </defs>
 <g id="figure_1">
  <g id="patch_1">
   <path d="M 0 259.2 
L 720 259.2 
L 720 0 
L 0 0 
z
" style="fill: #ffffff"/>
  </g>
  <g id="axes_1">
   <g id="patch_2">
    <path d="M 30.49 217.24 
L 709.2 217.24 
L 709.2 26.88 
L 30.49 26.88 
z
" style="fill: #ffffff"/>
   </g>
   <g id="matplotlib.axis_1">
    <g id="xtick_1">
     <g id="line2d_1">
      <path d="M 61.340455 217.24 
L 61.340455 26.88 
" clip-path="url(#p015225a34e)" style="fill: none; stroke: #b0b0b0; stroke-opacity: 0.25; stroke-width: 0.8; stroke-linecap: square"/>
     </g>
     <g id="line2d_2">
      <defs>
       <path id="me9854b6f25" d="M 0 0 
L 0 3.5 
" style="stroke: #000000; stroke-width: 0.8"/>
      </defs>
      <g>
       <use xlink:href="#me9854b6f25" x="61.340455" y="217.24" style="stroke: #000000; stroke-width: 0.8"/>
      </g>
     </g>
     <g id="text_1">
      <!-- 0 -->
      <g transform="translate(58.159205 231.838437) scale(0.1 -0.1)">
       <defs>
        <path id="DejaVuSans-30" d="M 2034 4250 
Q 1547 4250 1301 3770 
Q 1056 3291 1056 2328 
Q 1056 1369 1301 889 
Q 1547 409 2034 409 
Q 2525 409 2770 889 
Q 3016 1369 3016 2328 
Q 3016 3291 2770 3770 
Q 2525 4250 2034 4250 
z
M 2034 4750 
Q 2819 4750 3233 4129 
Q 3647 3509 3647 2328 
Q 3647 1150 3233 529 
Q 2819 -91 2034 -91 
Q 1250 -91 836 529 
Q 422 1150 422 2328 
Q 422 3509 836 4129 
Q 1250 4750 2034 4750 
z
" transform="scale(0.015625)"/>
       </defs>
       <use xlink:href="#DejaVuSans-30"/>
      </g>
     </g>
    </g>
    <g id="xtick_2">
     <g id="line2d_3">
      <path d="M 138.951661 217.24 
L 138.951661 26.88 
" clip-path="url(#p015225a34e)" style="fill: none; stroke: #b0b0b0; stroke-opacity: 0.25; stroke-width: 0.8; stroke-linecap: square"/>
     </g>
     <g id="line2d_4">
      <g>
       <use xlink:href="#me9854b6f25" x="138.951661" y="217.24" style="stroke: #000000; stroke-width: 0.8"/>
      </g>
     </g>
     <g id="text_2">
      <!-- 20 -->
      <g transform="translate(132.589161 231.838437) scale(0.1 -0.1)">
       <defs>
        <path id="DejaVuSans-32" d="M 1228 531 
L 3431 531 
L 3431 0 
L 469 0 
L 469 531 
Q 828 903 1448 1529 
Q 2069 2156 2228 2338 
Q 2531 2678 2651 2914 
Q 2772 3150 2772 3378 
Q 2772 3750 2511 3984 
Q 2250 4219 1831 4219 
Q 1534 4219 1204 4116 
Q 875 4013 500 3803 
L 500 4441 
Q 881 4594 1212 4672 
Q 1544 4750 1819 4750 
Q 2544 4750 2975 4387 
Q 3406 4025 3406 3419 
Q 3406 3131 3298 2873 
Q 3191 2616 2906 2266 
Q 2828 2175 2409 1742 
Q 1991 1309 1228 531 
z
" transform="scale(0.015625)"/>
       </defs>
       <use xlink:href="#DejaVuSans-32"/>
       <use xlink:href="#DejaVuSans-30" x="63.623047"/>
      </g>
     </g>
    </g>
    <g id="xtick_3">
     <g id="line2d_5">
      <path d="M 216.562867 217.24 
L 216.562867 26.88 
" clip-path="url(#p015225a34e)" style="fill: none; stroke: #b0b0b0; stroke-opacity: 0.25; stroke-width: 0.8; stroke-linecap: square"/>
     </g>
     <g id="line2d_6">
      <g>
       <use xlink:href="#me9854b6f25" x="216.562867" y="217.24" style="stroke: #000000; stroke-width: 0.8"/>
      </g>
     </g>
     <g id="text_3">
      <!-- 40 -->
      <g transform="translate(210.200367 231.838437) scale(0.1 -0.1)">
       <defs>
        <path id="DejaVuSans-34" d="M 2419 4116 
L 825 1625 
L 2419 1625 
L 2419 4116 
z
M 2253 4666 
L 3047 4666 
L 3047 1625 
L 3713 1625 
L 3713 1100 
L 3047 1100 
L 3047 0 
L 2419 0 
L 2419 1100 
L 313 1100 
L 313 1709 
L 2253 4666 
z
" transform="scale(0.015625)"/>
       </defs>
       <use xlink:href="#DejaVuSans-34"/>
       <use xlink:href="#DejaVuSans-30" x="63.623047"/>
      </g>
     </g>
    </g>
    <g id="xtick_4">
     <g id="line2d_7">
      <path d="M 294.174074 217.24 
L 294.174074 26.88 
" clip-path="url(#p015225a34e)" style="fill: none; stroke: #b0b0b0; stroke-opacity: 0.25; stroke-width: 0.8; stroke-linecap: square"/>
     </g>
     <g id="line2d_8">
      <g>
       <use xlink:href="#me9854b6f25" x="294.174074" y="217.24" style="stroke: #000000; stroke-width: 0.8"/>
      </g>
     </g>
     <g id="text_4">
      <!-- 60 -->
      <g transform="translate(287.811574 231.838437) scale(0.1 -0.1)">
       <defs>
        <path id="DejaVuSans-36" d="M 2113 2584 
Q 1688 2584 1439 2293 
Q 1191 2003 1191 1497 
Q 1191 994 1439 701 
Q 1688 409 2113 409 
Q 2538 409 2786 701 
Q 3034 994 3034 1497 
Q 3034 2003 2786 2293 
Q 2538 2584 2113 2584 
z
M 3366 4563 
L 3366 3988 
Q 3128 4100 2886 4159 
Q 2644 4219 2406 4219 
Q 1781 4219 1451 3797 
Q 1122 3375 1075 2522 
Q 1259 2794 1537 2939 
Q 1816 3084 2150 3084 
Q 2853 3084 3261 2657 
Q 3669 2231 3669 1497 
Q 3669 778 3244 343 
Q 2819 -91 2113 -91 
Q 1303 -91 875 529 
Q 447 1150 447 2328 
Q 447 3434 972 4092 
Q 1497 4750 2381 4750 
Q 2619 4750 2861 4703 
Q 3103 4656 3366 4563 
z
" transform="scale(0.015625)"/>
       </defs>
       <use xlink:href="#DejaVuSans-36"/>
       <use xlink:href="#DejaVuSans-30" x="63.623047"/>
      </g>
     </g>
    </g>
    <g id="xtick_5">
     <g id="line2d_9">
      <path d="M 371.78528 217.24 
L 371.78528 26.88 
" clip-path="url(#p015225a34e)" style="fill: none; stroke: #b0b0b0; stroke-opacity: 0.25; stroke-width: 0.8; stroke-linecap: square"/>
     </g>
     <g id="line2d_10">
      <g>
       <use xlink:href="#me9854b6f25" x="371.78528" y="217.24" style="stroke: #000000; stroke-width: 0.8"/>
      </g>
     </g>
     <g id="text_5">
      <!-- 80 -->
      <g transform="translate(365.42278 231.838437) scale(0.1 -0.1)">
       <defs>
        <path id="DejaVuSans-38" d="M 2034 2216 
Q 1584 2216 1326 1975 
Q 1069 1734 1069 1313 
Q 1069 891 1326 650 
Q 1584 409 2034 409 
Q 2484 409 2743 651 
Q 3003 894 3003 1313 
Q 3003 1734 2745 1975 
Q 2488 2216 2034 2216 
z
M 1403 2484 
Q 997 2584 770 2862 
Q 544 3141 544 3541 
Q 544 4100 942 4425 
Q 1341 4750 2034 4750 
Q 2731 4750 3128 4425 
Q 3525 4100 3525 3541 
Q 3525 3141 3298 2862 
Q 3072 2584 2669 2484 
Q 3125 2378 3379 2068 
Q 3634 1759 3634 1313 
Q 3634 634 3220 271 
Q 2806 -91 2034 -91 
Q 1263 -91 848 271 
Q 434 634 434 1313 
Q 434 1759 690 2068 
Q 947 2378 1403 2484 
z
M 1172 3481 
Q 1172 3119 1398 2916 
Q 1625 2713 2034 2713 
Q 2441 2713 2670 2916 
Q 2900 3119 2900 3481 
Q 2900 3844 2670 4047 
Q 2441 4250 2034 4250 
Q 1625 4250 1398 4047 
Q 1172 3844 1172 3481 
z
" transform="scale(0.015625)"/>
       </defs>
       <use xlink:href="#DejaVuSans-38"/>
       <use xlink:href="#DejaVuSans-30" x="63.623047"/>
      </g>
     </g>
    </g>
    <g id="xtick_6">
     <g id="line2d_11">
      <path d="M 449.396487 217.24 
L 449.396487 26.88 
" clip-path="url(#p015225a34e)" style="fill: none; stroke: #b0b0b0; stroke-opacity: 0.25; stroke-width: 0.8; stroke-linecap: square"/>
     </g>
     <g id="line2d_12">
      <g>
       <use xlink:href="#me9854b6f25" x="449.396487" y="217.24" style="stroke: #000000; stroke-width: 0.8"/>
      </g>
     </g>
     <g id="text_6">
      <!-- 100 -->
      <g transform="translate(439.852737 231.838437) scale(0.1 -0.1)">
       <defs>
        <path id="DejaVuSans-31" d="M 794 531 
L 1825 531 
L 1825 4091 
L 703 3866 
L 703 4441 
L 1819 4666 
L 2450 4666 
L 2450 531 
L 3481 531 
L 3481 0 
L 794 0 
L 794 531 
z
" transform="scale(0.015625)"/>
       </defs>
       <use xlink:href="#DejaVuSans-31"/>
       <use xlink:href="#DejaVuSans-30" x="63.623047"/>
       <use xlink:href="#DejaVuSans-30" x="127.246094"/>
      </g>
     </g>
    </g>
    <g id="xtick_7">
     <g id="line2d_13">
      <path d="M 527.007693 217.24 
L 527.007693 26.88 
" clip-path="url(#p015225a34e)" style="fill: none; stroke: #b0b0b0; stroke-opacity: 0.25; stroke-width: 0.8; stroke-linecap: square"/>
     </g>
     <g id="line2d_14">
      <g>
       <use xlink:href="#me9854b6f25" x="527.007693" y="217.24" style="stroke: #000000; stroke-width: 0.8"/>
      </g>
     </g>
     <g id="text_7">
      <!-- 120 -->
      <g transform="translate(517.463943 231.838437) scale(0.1 -0.1)">
       <use xlink:href="#DejaVuSans-31"/>
       <use xlink:href="#DejaVuSans-32" x="63.623047"/>
       <use xlink:href="#DejaVuSans-30" x="127.246094"/>
      </g>
     </g>
    </g>
    <g id="xtick_8">
     <g id="line2d_15">
      <path d="M 604.618899 217.24 
L 604.618899 26.88 
" clip-path="url(#p015225a34e)" style="fill: none; stroke: #b0b0b0; stroke-opacity: 0.25; stroke-width: 0.8; stroke-linecap: square"/>
     </g>
     <g id="line2d_16">
      <g>
       <use xlink:href="#me9854b6f25" x="604.618899" y="217.24" style="stroke: #000000; stroke-width: 0.8"/>
      </g>
     </g>
     <g id="text_8">
      <!-- 140 -->
      <g transform="translate(595.075149 231.838437) scale(0.1 -0.1)">
       <use xlink:href="#DejaVuSans-31"/>
       <use xlink:href="#DejaVuSans-34" x="63.623047"/>
       <use xlink:href="#DejaVuSans-30" x="127.246094"/>
      </g>
     </g>
    </g>
    <g id="xtick_9">
     <g id="line2d_17">
      <path d="M 682.230106 217.24 
L 682.230106 26.88 
" clip-path="url(#p015225a34e)" style="fill: none; stroke: #b0b0b0; stroke-opacity: 0.25; stroke-width: 0.8; stroke-linecap: square"/>
     </g>
     <g id="line2d_18">
      <g>
       <use xlink:href="#me9854b6f25" x="682.230106" y="217.24" style="stroke: #000000; stroke-width: 0.8"/>
      </g>
     </g>
     <g id="text_9">
      <!-- 160 -->
      <g transform="translate(672.686356 231.838437) scale(0.1 -0.1)">
       <use xlink:href="#DejaVuSans-31"/>
       <use xlink:href="#DejaVuSans-36" x="63.623047"/>
       <use xlink:href="#DejaVuSans-30" x="127.246094"/>
      </g>
     </g>
    </g>
    <g id="text_10">
     <!-- time -->
     <g transform="translate(358.548906 245.516562) scale(0.1 -0.1)">
      <defs>
       <path id="DejaVuSans-74" d="M 1172 4494 
L 1172 3500 
L 2356 3500 
L 2356 3053 
L 1172 3053 
L 1172 1153 
Q 1172 725 1289 603 
Q 1406 481 1766 481 
L 2356 481 
L 2356 0 
L 1766 0 
Q 1100 0 847 248 
Q 594 497 594 1153 
L 594 3053 
L 172 3053 
L 172 3500 
L 594 3500 
L 594 4494 
L 1172 4494 
z
" transform="scale(0.015625)"/>
       <path id="DejaVuSans-69" d="M 603 3500 
L 1178 3500 
L 1178 0 
L 603 0 
L 603 3500 
z
M 603 4863 
L 1178 4863 
L 1178 4134 
L 603 4134 
L 603 4863 
z
" transform="scale(0.015625)"/>
       <path id="DejaVuSans-6d" d="M 3328 2828 
Q 3544 3216 3844 3400 
Q 4144 3584 4550 3584 
Q 5097 3584 5394 3201 
Q 5691 2819 5691 2113 
L 5691 0 
L 5113 0 
L 5113 2094 
Q 5113 2597 4934 2840 
Q 4756 3084 4391 3084 
Q 3944 3084 3684 2787 
Q 3425 2491 3425 1978 
L 3425 0 
L 2847 0 
L 2847 2094 
Q 2847 2600 2669 2842 
Q 2491 3084 2119 3084 
Q 1678 3084 1418 2786 
Q 1159 2488 1159 1978 
L 1159 0 
L 581 0 
L 581 3500 
L 1159 3500 
L 1159 2956 
Q 1356 3278 1631 3431 
Q 1906 3584 2284 3584 
Q 2666 3584 2933 3390 
Q 3200 3197 3328 2828 
z
" transform="scale(0.015625)"/>
       <path id="DejaVuSans-65" d="M 3597 1894 
L 3597 1613 
L 953 1613 
Q 991 1019 1311 708 
Q 1631 397 2203 397 
Q 2534 397 2845 478 
Q 3156 559 3463 722 
L 3463 178 
Q 3153 47 2828 -22 
Q 2503 -91 2169 -91 
Q 1331 -91 842 396 
Q 353 884 353 1716 
Q 353 2575 817 3079 
Q 1281 3584 2069 3584 
Q 2775 3584 3186 3129 
Q 3597 2675 3597 1894 
z
M 3022 2063 
Q 3016 2534 2758 2815 
Q 2500 3097 2075 3097 
Q 1594 3097 1305 2825 
Q 1016 2553 972 2059 
L 3022 2063 
z
" transform="scale(0.015625)"/>
      </defs>
      <use xlink:href="#DejaVuSans-74"/>
      <use xlink:href="#DejaVuSans-69" x="39.208984"/>
      <use xlink:href="#DejaVuSans-6d" x="66.992188"/>
      <use xlink:href="#DejaVuSans-65" x="164.404297"/>
     </g>
    </g>
   </g>
   <g id="matplotlib.axis_2">
    <g id="ytick_1">
     <g id="line2d_19">
      <path d="M 30.49 211.021762 
L 709.2 211.021762 
" clip-path="url(#p015225a34e)" style="fill: none; stroke: #b0b0b0; stroke-opacity: 0.25; stroke-width: 0.8; stroke-linecap: square"/>
     </g>
     <g id="line2d_20">
      <defs>
       <path id="m72a969ac7f" d="M 0 0 
L -3.5 0 
" style="stroke: #000000; stroke-width: 0.8"/>
      </defs>
      <g>
       <use xlink:href="#m72a969ac7f" x="30.49" y="211.021762" style="stroke: #000000; stroke-width: 0.8"/>
      </g>
     </g>
     <g id="text_11">
      <!-- 0 -->
      <g transform="translate(17.1275 214.820981) scale(0.1 -0.1)">
       <use xlink:href="#DejaVuSans-30"/>
      </g>
     </g>
    </g>
    <g id="ytick_2">
     <g id="line2d_21">
      <path d="M 30.49 186.471508 
L 709.2 186.471508 
" clip-path="url(#p015225a34e)" style="fill: none; stroke: #b0b0b0; stroke-opacity: 0.25; stroke-width: 0.8; stroke-linecap: square"/>
     </g>
     <g id="line2d_22">
      <g>
       <use xlink:href="#m72a969ac7f" x="30.49" y="186.471508" style="stroke: #000000; stroke-width: 0.8"/>
      </g>
     </g>
     <g id="text_12">
      <!-- 10 -->
      <g transform="translate(10.765 190.270726) scale(0.1 -0.1)">
       <use xlink:href="#DejaVuSans-31"/>
       <use xlink:href="#DejaVuSans-30" x="63.623047"/>
      </g>
     </g>
    </g>
    <g id="ytick_3">
     <g id="line2d_23">
      <path d="M 30.49 161.921253 
L 709.2 161.921253 
" clip-path="url(#p015225a34e)" style="fill: none; stroke: #b0b0b0; stroke-opacity: 0.25; stroke-width: 0.8; stroke-linecap: square"/>
     </g>
     <g id="line2d_24">
      <g>
       <use xlink:href="#m72a969ac7f" x="30.49" y="161.921253" style="stroke: #000000; stroke-width: 0.8"/>
      </g>
     </g>
     <g id="text_13">
      <!-- 20 -->
      <g transform="translate(10.765 165.720472) scale(0.1 -0.1)">
       <use xlink:href="#DejaVuSans-32"/>
       <use xlink:href="#DejaVuSans-30" x="63.623047"/>
      </g>
     </g>
    </g>
    <g id="ytick_4">
     <g id="line2d_25">
      <path d="M 30.49 137.370998 
L 709.2 137.370998 
" clip-path="url(#p015225a34e)" style="fill: none; stroke: #b0b0b0; stroke-opacity: 0.25; stroke-width: 0.8; stroke-linecap: square"/>
     </g>
     <g id="line2d_26">
      <g>
       <use xlink:href="#m72a969ac7f" x="30.49" y="137.370998" style="stroke: #000000; stroke-width: 0.8"/>
      </g>
     </g>
     <g id="text_14">
      <!-- 30 -->
      <g transform="translate(10.765 141.170217) scale(0.1 -0.1)">
       <defs>
        <path id="DejaVuSans-33" d="M 2597 2516 
Q 3050 2419 3304 2112 
Q 3559 1806 3559 1356 
Q 3559 666 3084 287 
Q 2609 -91 1734 -91 
Q 1441 -91 1130 -33 
Q 819 25 488 141 
L 488 750 
Q 750 597 1062 519 
Q 1375 441 1716 441 
Q 2309 441 2620 675 
Q 2931 909 2931 1356 
Q 2931 1769 2642 2001 
Q 2353 2234 1838 2234 
L 1294 2234 
L 1294 2753 
L 1863 2753 
Q 2328 2753 2575 2939 
Q 2822 3125 2822 3475 
Q 2822 3834 2567 4026 
Q 2313 4219 1838 4219 
Q 1578 4219 1281 4162 
Q 984 4106 628 3988 
L 628 4550 
Q 988 4650 1302 4700 
Q 1616 4750 1894 4750 
Q 2613 4750 3031 4423 
Q 3450 4097 3450 3541 
Q 3450 3153 3228 2886 
Q 3006 2619 2597 2516 
z
" transform="scale(0.015625)"/>
       </defs>
       <use xlink:href="#DejaVuSans-33"/>
       <use xlink:href="#DejaVuSans-30" x="63.623047"/>
      </g>
     </g>
    </g>
    <g id="ytick_5">
     <g id="line2d_27">
      <path d="M 30.49 112.820743 
L 709.2 112.820743 
" clip-path="url(#p015225a34e)" style="fill: none; stroke: #b0b0b0; stroke-opacity: 0.25; stroke-width: 0.8; stroke-linecap: square"/>
     </g>
     <g id="line2d_28">
      <g>
       <use xlink:href="#m72a969ac7f" x="30.49" y="112.820743" style="stroke: #000000; stroke-width: 0.8"/>
      </g>
     </g>
     <g id="text_15">
      <!-- 40 -->
      <g transform="translate(10.765 116.619962) scale(0.1 -0.1)">
       <use xlink:href="#DejaVuSans-34"/>
       <use xlink:href="#DejaVuSans-30" x="63.623047"/>
      </g>
     </g>
    </g>
    <g id="ytick_6">
     <g id="line2d_29">
      <path d="M 30.49 88.270488 
L 709.2 88.270488 
" clip-path="url(#p015225a34e)" style="fill: none; stroke: #b0b0b0; stroke-opacity: 0.25; stroke-width: 0.8; stroke-linecap: square"/>
     </g>
     <g id="line2d_30">
      <g>
       <use xlink:href="#m72a969ac7f" x="30.49" y="88.270488" style="stroke: #000000; stroke-width: 0.8"/>
      </g>
     </g>
     <g id="text_16">
      <!-- 50 -->
      <g transform="translate(10.765 92.069707) scale(0.1 -0.1)">
       <defs>
        <path id="DejaVuSans-35" d="M 691 4666 
L 3169 4666 
L 3169 4134 
L 1269 4134 
L 1269 2991 
Q 1406 3038 1543 3061 
Q 1681 3084 1819 3084 
Q 2600 3084 3056 2656 
Q 3513 2228 3513 1497 
Q 3513 744 3044 326 
Q 2575 -91 1722 -91 
Q 1428 -91 1123 -41 
Q 819 9 494 109 
L 494 744 
Q 775 591 1075 516 
Q 1375 441 1709 441 
Q 2250 441 2565 725 
Q 2881 1009 2881 1497 
Q 2881 1984 2565 2268 
Q 2250 2553 1709 2553 
Q 1456 2553 1204 2497 
Q 953 2441 691 2322 
L 691 4666 
z
" transform="scale(0.015625)"/>
       </defs>
       <use xlink:href="#DejaVuSans-35"/>
       <use xlink:href="#DejaVuSans-30" x="63.623047"/>
      </g>
     </g>
    </g>
    <g id="ytick_7">
     <g id="line2d_31">
      <path d="M 30.49 63.720233 
L 709.2 63.720233 
" clip-path="url(#p015225a34e)" style="fill: none; stroke: #b0b0b0; stroke-opacity: 0.25; stroke-width: 0.8; stroke-linecap: square"/>
     </g>
     <g id="line2d_32">
      <g>
       <use xlink:href="#m72a969ac7f" x="30.49" y="63.720233" style="stroke: #000000; stroke-width: 0.8"/>
      </g>
     </g>
     <g id="text_17">
      <!-- 60 -->
      <g transform="translate(10.765 67.519452) scale(0.1 -0.1)">
       <use xlink:href="#DejaVuSans-36"/>
       <use xlink:href="#DejaVuSans-30" x="63.623047"/>
      </g>
     </g>
    </g>
    <g id="ytick_8">
     <g id="line2d_33">
      <path d="M 30.49 39.169979 
L 709.2 39.169979 
" clip-path="url(#p015225a34e)" style="fill: none; stroke: #b0b0b0; stroke-opacity: 0.25; stroke-width: 0.8; stroke-linecap: square"/>
     </g>
     <g id="line2d_34">
      <g>
       <use xlink:href="#m72a969ac7f" x="30.49" y="39.169979" style="stroke: #000000; stroke-width: 0.8"/>
      </g>
     </g>
     <g id="text_18">
      <!-- 70 -->
      <g transform="translate(10.765 42.969197) scale(0.1 -0.1)">
       <defs>
        <path id="DejaVuSans-37" d="M 525 4666 
L 3525 4666 
L 3525 4397 
L 1831 0 
L 1172 0 
L 2766 4134 
L 525 4134 
L 525 4666 
z
" transform="scale(0.015625)"/>
       </defs>
       <use xlink:href="#DejaVuSans-37"/>
       <use xlink:href="#DejaVuSans-30" x="63.623047"/>
      </g>
     </g>
    </g>
   </g>
   <g id="line2d_35">
    <path d="M 61.340455 46.648567 
L 65.221015 45.668594 
L 72.982136 46.077669 
L 80.743256 43.984258 
L 84.623816 44.083285 
L 88.504377 45.332864 
L 92.384937 45.688657 
L 100.146058 44.445052 
L 104.026618 46.484434 
L 107.907178 44.722757 
L 111.787739 45.692206 
L 115.668299 45.372027 
L 123.42942 45.336867 
L 131.19054 44.552324 
L 135.071101 45.753958 
L 138.951661 44.656996 
L 142.832221 46.575038 
L 146.712782 45.851368 
L 150.593342 45.498265 
L 158.354463 47.048453 
L 162.235023 47.207665 
L 166.115583 46.770962 
L 169.996144 46.105688 
L 173.876704 47.035575 
L 177.757264 46.178889 
L 181.637824 45.92831 
L 185.518385 45.084823 
L 189.398945 45.094388 
L 193.279505 44.680386 
L 197.160066 45.239151 
L 201.040626 44.472542 
L 204.921186 43.371361 
L 208.801747 42.453354 
L 212.682307 44.525369 
L 216.562867 41.87194 
L 220.443428 41.774392 
L 232.085109 42.697189 
L 235.965669 41.091867 
L 239.846229 40.622308 
L 243.72679 40.764676 
L 247.60735 41.230859 
L 251.48791 42.140679 
L 255.368471 43.607194 
L 259.249031 42.722705 
L 263.129591 42.327117 
L 267.010152 44.185864 
L 270.890712 42.934716 
L 274.771272 43.100265 
L 278.651832 43.059177 
L 282.532393 44.847043 
L 286.412953 44.548096 
L 290.293513 44.475706 
L 294.174074 45.192746 
L 298.054634 42.741143 
L 301.935194 44.667896 
L 305.815755 43.921103 
L 309.696315 44.343189 
L 313.576875 42.633554 
L 317.457436 42.690737 
L 321.337996 43.073396 
L 325.218556 45.269051 
L 329.099117 43.060245 
L 332.979677 42.224395 
L 336.860237 41.640796 
L 340.740798 42.718228 
L 344.621358 40.305535 
L 348.501918 42.697306 
L 352.382479 41.838046 
L 356.263039 40.195458 
L 360.143599 44.39735 
L 364.02416 42.511268 
L 367.90472 43.900956 
L 371.78528 40.797642 
L 375.66584 40.495225 
L 379.546401 41.07037 
L 383.426961 41.23672 
L 387.307521 39.645303 
L 391.188082 39.774505 
L 395.068642 39.28269 
L 398.949202 41.193395 
L 402.829763 39.265934 
L 406.710323 41.151884 
L 410.590883 39.74752 
L 414.471444 41.66762 
L 418.352004 42.115344 
L 422.232564 41.441064 
L 426.113125 40.919352 
L 429.993685 41.788462 
L 437.754806 43.214281 
L 441.635366 43.272164 
L 445.515926 41.597954 
L 449.396487 41.096705 
L 453.277047 41.961455 
L 457.157607 42.574542 
L 461.038168 40.693556 
L 464.918728 42.301971 
L 468.799288 41.543777 
L 472.679848 40.104359 
L 476.560409 42.263028 
L 480.440969 39.68141 
L 484.321529 40.19701 
L 488.20209 39.29493 
L 492.08265 39.160785 
L 495.96321 38.651355 
L 499.843771 37.986605 
L 503.724331 39.027055 
L 507.604891 36.985529 
L 511.485452 37.455777 
L 515.366012 37.271931 
L 519.246572 36.957989 
L 523.127133 37.288236 
L 527.007693 37.287823 
L 530.888253 38.035039 
L 534.768814 39.447135 
L 538.649374 38.487148 
L 546.410495 39.953563 
L 550.291055 38.704382 
L 554.171615 39.610392 
L 558.052176 40.194358 
L 561.932736 40.378018 
L 565.813296 39.401113 
L 569.693856 39.444735 
L 573.574417 38.703481 
L 577.454977 39.899898 
L 581.335537 38.998801 
L 585.216098 38.651095 
L 589.096658 38.78495 
L 592.977218 41.678807 
L 596.857779 38.421743 
L 600.738339 38.97802 
L 612.38002 38.135202 
L 616.26058 37.88123 
L 620.141141 38.147917 
L 624.021701 39.157343 
L 627.902261 37.308531 
L 631.782822 37.612467 
L 635.663382 35.722999 
L 639.543942 36.657319 
L 643.424503 36.129808 
L 647.305063 36.762668 
L 655.066184 35.832941 
L 658.946744 37.061346 
L 662.827304 35.532727 
L 666.707864 35.930364 
L 670.588425 36.944949 
L 674.468985 38.107985 
L 678.349545 35.75638 
L 678.349545 35.75638 
" clip-path="url(#p015225a34e)" style="fill: none; stroke: #1f77b4; stroke-width: 1.4; stroke-linecap: square"/>
   </g>
   <g id="line2d_36">
    <path d="M 61.340455 208.357763 
L 69.101575 208.348688 
L 72.982136 208.095958 
L 76.862696 208.324279 
L 80.743256 208.306766 
L 84.623816 208.499171 
L 88.504377 208.113651 
L 100.146058 208.307711 
L 104.026618 208.200275 
L 119.548859 208.490648 
L 123.42942 208.182666 
L 127.30998 208.545711 
L 131.19054 208.336877 
L 158.354463 208.360555 
L 162.235023 208.130788 
L 173.876704 208.537647 
L 177.757264 208.458747 
L 181.637824 208.164042 
L 189.398945 208.330671 
L 193.279505 208.093439 
L 197.160066 208.451829 
L 208.801747 208.220107 
L 212.682307 208.372764 
L 216.562867 208.365844 
L 220.443428 208.486814 
L 224.323988 208.199484 
L 228.204548 208.18929 
L 232.085109 208.345954 
L 235.965669 208.26666 
L 239.846229 208.444617 
L 243.72679 208.343092 
L 247.60735 208.115264 
L 251.48791 208.266981 
L 255.368471 207.999275 
L 259.249031 208.378736 
L 263.129591 208.21011 
L 267.010152 208.304572 
L 270.890712 208.210351 
L 282.532393 208.384004 
L 286.412953 207.900371 
L 290.293513 208.28544 
L 294.174074 208.522665 
L 301.935194 208.189626 
L 305.815755 208.332055 
L 309.696315 208.099526 
L 329.099117 208.182157 
L 332.979677 208.180399 
L 336.860237 207.733906 
L 340.740798 207.560341 
L 344.621358 207.795178 
L 348.501918 207.70511 
L 352.382479 207.74743 
L 356.263039 207.676836 
L 360.143599 208.019224 
L 367.90472 207.716412 
L 371.78528 208.034329 
L 375.66584 207.982128 
L 379.546401 208.216411 
L 383.426961 207.985717 
L 387.307521 208.204239 
L 391.188082 208.289842 
L 395.068642 207.936331 
L 398.949202 208.292095 
L 402.829763 208.402816 
L 406.710323 208.227896 
L 410.590883 208.256869 
L 414.471444 208.120503 
L 418.352004 208.363778 
L 422.232564 208.151104 
L 426.113125 208.144442 
L 429.993685 208.33031 
L 433.874245 208.227545 
L 437.754806 208.348792 
L 441.635366 207.958098 
L 445.515926 208.331716 
L 464.918728 208.147199 
L 468.799288 208.315617 
L 472.679848 208.262716 
L 476.560409 208.41302 
L 480.440969 208.339942 
L 484.321529 207.899331 
L 492.08265 208.331997 
L 495.96321 208.399476 
L 511.485452 208.323611 
L 515.366012 208.389401 
L 519.246572 208.056107 
L 527.007693 208.27515 
L 534.768814 208.292637 
L 538.649374 208.587273 
L 542.529934 208.211905 
L 546.410495 208.356746 
L 554.171615 208.302394 
L 558.052176 208.133141 
L 561.932736 208.365941 
L 565.813296 208.397489 
L 569.693856 208.141761 
L 573.574417 208.125184 
L 577.454977 208.327743 
L 581.335537 208.117592 
L 585.216098 208.162322 
L 589.096658 207.964236 
L 592.977218 207.949445 
L 596.857779 207.432986 
L 600.738339 207.160545 
L 604.618899 207.138244 
L 608.49946 207.238175 
L 612.38002 207.995208 
L 616.26058 207.758064 
L 624.021701 208.136902 
L 627.902261 208.254825 
L 635.663382 208.154921 
L 643.424503 208.262959 
L 647.305063 208.054425 
L 651.185623 208.340305 
L 655.066184 208.077401 
L 662.827304 208.301049 
L 666.707864 208.237148 
L 670.588425 208.313715 
L 674.468985 208.117153 
L 678.349545 208.156545 
L 678.349545 208.156545 
" clip-path="url(#p015225a34e)" style="fill: none; stroke: #ff7f0e; stroke-width: 1.4; stroke-linecap: square"/>
   </g>
   <g id="line2d_37">
    <path d="M 61.340455 181.662543 
L 65.221015 181.306197 
L 69.101575 181.181629 
L 72.982136 181.572473 
L 76.862696 181.492482 
L 80.743256 181.799603 
L 84.623816 181.733333 
L 88.504377 181.890397 
L 92.384937 181.752734 
L 96.265497 182.299981 
L 100.146058 181.661237 
L 104.026618 181.894843 
L 107.907178 181.67944 
L 111.787739 181.828087 
L 115.668299 181.564856 
L 119.548859 181.899957 
L 123.42942 181.156855 
L 127.30998 181.935959 
L 131.19054 181.675837 
L 138.951661 180.852595 
L 142.832221 181.185779 
L 146.712782 181.344931 
L 150.593342 181.715645 
L 154.473902 181.394177 
L 158.354463 181.400939 
L 162.235023 180.965631 
L 166.115583 181.355657 
L 169.996144 182.066205 
L 173.876704 181.091729 
L 177.757264 181.86961 
L 181.637824 182.063675 
L 185.518385 181.404873 
L 189.398945 181.869856 
L 193.279505 181.959255 
L 204.921186 181.43519 
L 208.801747 182.064374 
L 212.682307 180.995218 
L 224.323988 181.610854 
L 228.204548 181.603804 
L 232.085109 181.247206 
L 235.965669 181.458623 
L 239.846229 181.49723 
L 243.72679 181.056811 
L 251.48791 181.511325 
L 255.368471 181.247367 
L 259.249031 181.136103 
L 263.129591 181.938172 
L 267.010152 181.866556 
L 270.890712 181.47554 
L 278.651832 181.772573 
L 282.532393 181.512742 
L 286.412953 182.171595 
L 290.293513 182.262812 
L 294.174074 182.040187 
L 298.054634 181.691162 
L 301.935194 181.892086 
L 305.815755 181.722917 
L 309.696315 181.782817 
L 313.576875 181.589836 
L 317.457436 181.607584 
L 321.337996 181.094852 
L 325.218556 180.838574 
L 329.099117 181.053428 
L 332.979677 180.778809 
L 336.860237 180.670765 
L 340.740798 180.125816 
L 344.621358 180.077903 
L 348.501918 179.537315 
L 352.382479 180.345085 
L 356.263039 180.052216 
L 360.143599 180.26708 
L 364.02416 180.803923 
L 367.90472 180.836455 
L 371.78528 181.709005 
L 375.66584 180.875164 
L 379.546401 182.035585 
L 383.426961 181.440905 
L 387.307521 182.057269 
L 391.188082 181.361743 
L 395.068642 181.760986 
L 398.949202 181.532709 
L 402.829763 181.489789 
L 406.710323 181.109243 
L 410.590883 181.464227 
L 414.471444 182.19242 
L 418.352004 181.507456 
L 422.232564 181.21359 
L 426.113125 181.401659 
L 429.993685 181.069018 
L 433.874245 181.038708 
L 441.635366 181.902532 
L 445.515926 181.131157 
L 449.396487 181.296659 
L 453.277047 181.776967 
L 457.157607 181.132131 
L 461.038168 181.907364 
L 464.918728 182.174359 
L 472.679848 181.533484 
L 476.560409 182.103281 
L 480.440969 181.21025 
L 484.321529 181.99195 
L 488.20209 181.37806 
L 495.96321 181.552569 
L 499.843771 181.115761 
L 503.724331 181.81152 
L 507.604891 180.918385 
L 511.485452 181.302315 
L 515.366012 181.427519 
L 519.246572 181.051187 
L 523.127133 180.98356 
L 527.007693 181.111042 
L 530.888253 180.806023 
L 534.768814 181.145293 
L 538.649374 181.160812 
L 542.529934 181.774775 
L 550.291055 181.587382 
L 554.171615 181.809811 
L 565.813296 181.602182 
L 569.693856 181.85631 
L 581.335537 181.867913 
L 585.216098 181.083739 
L 589.096658 181.165687 
L 592.977218 180.486248 
L 596.857779 180.596443 
L 600.738339 180.349585 
L 608.49946 179.390181 
L 612.38002 179.801798 
L 620.141141 181.207751 
L 624.021701 181.278788 
L 631.782822 181.624998 
L 635.663382 182.350321 
L 639.543942 181.940844 
L 643.424503 181.809127 
L 647.305063 181.357824 
L 651.185623 181.792003 
L 655.066184 181.442492 
L 658.946744 181.967005 
L 662.827304 181.901547 
L 666.707864 182.933869 
L 670.588425 181.591332 
L 674.468985 181.498059 
L 678.349545 181.064368 
L 678.349545 181.064368 
" clip-path="url(#p015225a34e)" style="fill: none; stroke: #2ca02c; stroke-width: 1.4; stroke-linecap: square"/>
   </g>
   <g id="patch_3">
    <path d="M 30.49 217.24 
L 30.49 26.88 
" style="fill: none; stroke: #000000; stroke-width: 0.8; stroke-linejoin: miter; stroke-linecap: square"/>
   </g>
   <g id="patch_4">
    <path d="M 709.2 217.24 
L 709.2 26.88 
" style="fill: none; stroke: #000000; stroke-width: 0.8; stroke-linejoin: miter; stroke-linecap: square"/>
   </g>
   <g id="patch_5">
    <path d="M 30.49 217.24 
L 709.2 217.24 
" style="fill: none; stroke: #000000; stroke-width: 0.8; stroke-linejoin: miter; stroke-linecap: square"/>
   </g>
   <g id="patch_6">
    <path d="M 30.49 26.88 
L 709.2 26.88 
" style="fill: none; stroke: #000000; stroke-width: 0.8; stroke-linejoin: miter; stroke-linecap: square"/>
   </g>
   <g id="text_19">
    <!-- Factory sensor drift preview -->
    <g transform="translate(286.369063 20.88) scale(0.12 -0.12)">
     <defs>
      <path id="DejaVuSans-46" d="M 628 4666 
L 3309 4666 
L 3309 4134 
L 1259 4134 
L 1259 2759 
L 3109 2759 
L 3109 2228 
L 1259 2228 
L 1259 0 
L 628 0 
L 628 4666 
z
" transform="scale(0.015625)"/>
      <path id="DejaVuSans-61" d="M 2194 1759 
Q 1497 1759 1228 1600 
Q 959 1441 959 1056 
Q 959 750 1161 570 
Q 1363 391 1709 391 
Q 2188 391 2477 730 
Q 2766 1069 2766 1631 
L 2766 1759 
L 2194 1759 
z
M 3341 1997 
L 3341 0 
L 2766 0 
L 2766 531 
Q 2569 213 2275 61 
Q 1981 -91 1556 -91 
Q 1019 -91 701 211 
Q 384 513 384 1019 
Q 384 1609 779 1909 
Q 1175 2209 1959 2209 
L 2766 2209 
L 2766 2266 
Q 2766 2663 2505 2880 
Q 2244 3097 1772 3097 
Q 1472 3097 1187 3025 
Q 903 2953 641 2809 
L 641 3341 
Q 956 3463 1253 3523 
Q 1550 3584 1831 3584 
Q 2591 3584 2966 3190 
Q 3341 2797 3341 1997 
z
" transform="scale(0.015625)"/>
      <path id="DejaVuSans-63" d="M 3122 3366 
L 3122 2828 
Q 2878 2963 2633 3030 
Q 2388 3097 2138 3097 
Q 1578 3097 1268 2742 
Q 959 2388 959 1747 
Q 959 1106 1268 751 
Q 1578 397 2138 397 
Q 2388 397 2633 464 
Q 2878 531 3122 666 
L 3122 134 
Q 2881 22 2623 -34 
Q 2366 -91 2075 -91 
Q 1284 -91 818 406 
Q 353 903 353 1747 
Q 353 2603 823 3093 
Q 1294 3584 2113 3584 
Q 2378 3584 2631 3529 
Q 2884 3475 3122 3366 
z
" transform="scale(0.015625)"/>
      <path id="DejaVuSans-6f" d="M 1959 3097 
Q 1497 3097 1228 2736 
Q 959 2375 959 1747 
Q 959 1119 1226 758 
Q 1494 397 1959 397 
Q 2419 397 2687 759 
Q 2956 1122 2956 1747 
Q 2956 2369 2687 2733 
Q 2419 3097 1959 3097 
z
M 1959 3584 
Q 2709 3584 3137 3096 
Q 3566 2609 3566 1747 
Q 3566 888 3137 398 
Q 2709 -91 1959 -91 
Q 1206 -91 779 398 
Q 353 888 353 1747 
Q 353 2609 779 3096 
Q 1206 3584 1959 3584 
z
" transform="scale(0.015625)"/>
      <path id="DejaVuSans-72" d="M 2631 2963 
Q 2534 3019 2420 3045 
Q 2306 3072 2169 3072 
Q 1681 3072 1420 2755 
Q 1159 2438 1159 1844 
L 1159 0 
L 581 0 
L 581 3500 
L 1159 3500 
L 1159 2956 
Q 1341 3275 1631 3429 
Q 1922 3584 2338 3584 
Q 2397 3584 2469 3576 
Q 2541 3569 2628 3553 
L 2631 2963 
z
" transform="scale(0.015625)"/>
      <path id="DejaVuSans-79" d="M 2059 -325 
Q 1816 -950 1584 -1140 
Q 1353 -1331 966 -1331 
L 506 -1331 
L 506 -850 
L 844 -850 
Q 1081 -850 1212 -737 
Q 1344 -625 1503 -206 
L 1606 56 
L 191 3500 
L 800 3500 
L 1894 763 
L 2988 3500 
L 3597 3500 
L 2059 -325 
z
" transform="scale(0.015625)"/>
      <path id="DejaVuSans-20" transform="scale(0.015625)"/>
      <path id="DejaVuSans-73" d="M 2834 3397 
L 2834 2853 
Q 2591 2978 2328 3040 
Q 2066 3103 1784 3103 
Q 1356 3103 1142 2972 
Q 928 2841 928 2578 
Q 928 2378 1081 2264 
Q 1234 2150 1697 2047 
L 1894 2003 
Q 2506 1872 2764 1633 
Q 3022 1394 3022 966 
Q 3022 478 2636 193 
Q 2250 -91 1575 -91 
Q 1294 -91 989 -36 
Q 684 19 347 128 
L 347 722 
Q 666 556 975 473 
Q 1284 391 1588 391 
Q 1994 391 2212 530 
Q 2431 669 2431 922 
Q 2431 1156 2273 1281 
Q 2116 1406 1581 1522 
L 1381 1569 
Q 847 1681 609 1914 
Q 372 2147 372 2553 
Q 372 3047 722 3315 
Q 1072 3584 1716 3584 
Q 2034 3584 2315 3537 
Q 2597 3491 2834 3397 
z
" transform="scale(0.015625)"/>
      <path id="DejaVuSans-6e" d="M 3513 2113 
L 3513 0 
L 2938 0 
L 2938 2094 
Q 2938 2591 2744 2837 
Q 2550 3084 2163 3084 
Q 1697 3084 1428 2787 
Q 1159 2491 1159 1978 
L 1159 0 
L 581 0 
L 581 3500 
L 1159 3500 
L 1159 2956 
Q 1366 3272 1645 3428 
Q 1925 3584 2291 3584 
Q 2894 3584 3203 3211 
Q 3513 2838 3513 2113 
z
" transform="scale(0.015625)"/>
      <path id="DejaVuSans-64" d="M 2906 2969 
L 2906 4863 
L 3481 4863 
L 3481 0 
L 2906 0 
L 2906 525 
Q 2725 213 2448 61 
Q 2172 -91 1784 -91 
Q 1150 -91 751 415 
Q 353 922 353 1747 
Q 353 2572 751 3078 
Q 1150 3584 1784 3584 
Q 2172 3584 2448 3432 
Q 2725 3281 2906 2969 
z
M 947 1747 
Q 947 1113 1208 752 
Q 1469 391 1925 391 
Q 2381 391 2643 752 
Q 2906 1113 2906 1747 
Q 2906 2381 2643 2742 
Q 2381 3103 1925 3103 
Q 1469 3103 1208 2742 
Q 947 2381 947 1747 
z
" transform="scale(0.015625)"/>
      <path id="DejaVuSans-66" d="M 2375 4863 
L 2375 4384 
L 1825 4384 
Q 1516 4384 1395 4259 
Q 1275 4134 1275 3809 
L 1275 3500 
L 2222 3500 
L 2222 3053 
L 1275 3053 
L 1275 0 
L 697 0 
L 697 3053 
L 147 3053 
L 147 3500 
L 697 3500 
L 697 3744 
Q 697 4328 969 4595 
Q 1241 4863 1831 4863 
L 2375 4863 
z
" transform="scale(0.015625)"/>
      <path id="DejaVuSans-70" d="M 1159 525 
L 1159 -1331 
L 581 -1331 
L 581 3500 
L 1159 3500 
L 1159 2969 
Q 1341 3281 1617 3432 
Q 1894 3584 2278 3584 
Q 2916 3584 3314 3078 
Q 3713 2572 3713 1747 
Q 3713 922 3314 415 
Q 2916 -91 2278 -91 
Q 1894 -91 1617 61 
Q 1341 213 1159 525 
z
M 3116 1747 
Q 3116 2381 2855 2742 
Q 2594 3103 2138 3103 
Q 1681 3103 1420 2742 
Q 1159 2381 1159 1747 
Q 1159 1113 1420 752 
Q 1681 391 2138 391 
Q 2594 391 2855 752 
Q 3116 1113 3116 1747 
z
" transform="scale(0.015625)"/>
      <path id="DejaVuSans-76" d="M 191 3500 
L 800 3500 
L 1894 563 
L 2988 3500 
L 3597 3500 
L 2284 0 
L 1503 0 
L 191 3500 
z
" transform="scale(0.015625)"/>
      <path id="DejaVuSans-77" d="M 269 3500 
L 844 3500 
L 1563 769 
L 2278 3500 
L 2956 3500 
L 3675 769 
L 4391 3500 
L 4966 3500 
L 4050 0 
L 3372 0 
L 2619 2869 
L 1863 0 
L 1184 0 
L 269 3500 
z
" transform="scale(0.015625)"/>
     </defs>
     <use xlink:href="#DejaVuSans-46"/>
     <use xlink:href="#DejaVuSans-61" x="48.394531"/>
     <use xlink:href="#DejaVuSans-63" x="109.673828"/>
     <use xlink:href="#DejaVuSans-74" x="164.654297"/>
     <use xlink:href="#DejaVuSans-6f" x="203.863281"/>
     <use xlink:href="#DejaVuSans-72" x="265.044922"/>
     <use xlink:href="#DejaVuSans-79" x="306.158203"/>
     <use xlink:href="#DejaVuSans-20" x="365.337891"/>
     <use xlink:href="#DejaVuSans-73" x="397.125"/>
     <use xlink:href="#DejaVuSans-65" x="449.224609"/>
     <use xlink:href="#DejaVuSans-6e" x="510.748047"/>
     <use xlink:href="#DejaVuSans-73" x="574.126953"/>
     <use xlink:href="#DejaVuSans-6f" x="626.226562"/>
     <use xlink:href="#DejaVuSans-72" x="687.408203"/>
     <use xlink:href="#DejaVuSans-20" x="728.521484"/>
     <use xlink:href="#DejaVuSans-64" x="760.308594"/>
     <use xlink:href="#DejaVuSans-72" x="823.785156"/>
     <use xlink:href="#DejaVuSans-69" x="864.898438"/>
     <use xlink:href="#DejaVuSans-66" x="892.681641"/>
     <use xlink:href="#DejaVuSans-74" x="926.136719"/>
     <use xlink:href="#DejaVuSans-20" x="965.345703"/>
     <use xlink:href="#DejaVuSans-70" x="997.132812"/>
     <use xlink:href="#DejaVuSans-72" x="1060.609375"/>
     <use xlink:href="#DejaVuSans-65" x="1099.472656"/>
     <use xlink:href="#DejaVuSans-76" x="1160.996094"/>
     <use xlink:href="#DejaVuSans-69" x="1220.175781"/>
     <use xlink:href="#DejaVuSans-65" x="1247.958984"/>
     <use xlink:href="#DejaVuSans-77" x="1309.482422"/>
    </g>
   </g>
   <g id="legend_1">
    <g id="patch_7">
     <path d="M 486.5125 45.0225 
L 703.6 45.0225 
Q 705.2 45.0225 705.2 43.4225 
L 705.2 32.48 
Q 705.2 30.88 703.6 30.88 
L 486.5125 30.88 
Q 484.9125 30.88 484.9125 32.48 
L 484.9125 43.4225 
Q 484.9125 45.0225 486.5125 45.0225 
z
" style="fill: #ffffff; opacity: 0.8; stroke: #cccccc; stroke-linejoin: miter"/>
    </g>
    <g id="line2d_38">
     <path d="M 488.1125 37.35875 
L 496.1125 37.35875 
L 504.1125 37.35875 
" style="fill: none; stroke: #1f77b4; stroke-width: 1.4; stroke-linecap: square"/>
    </g>
    <g id="text_20">
     <!-- temperature -->
     <g transform="translate(510.5125 40.15875) scale(0.08 -0.08)">
      <defs>
       <path id="DejaVuSans-75" d="M 544 1381 
L 544 3500 
L 1119 3500 
L 1119 1403 
Q 1119 906 1312 657 
Q 1506 409 1894 409 
Q 2359 409 2629 706 
Q 2900 1003 2900 1516 
L 2900 3500 
L 3475 3500 
L 3475 0 
L 2900 0 
L 2900 538 
Q 2691 219 2414 64 
Q 2138 -91 1772 -91 
Q 1169 -91 856 284 
Q 544 659 544 1381 
z
M 1991 3584 
L 1991 3584 
z
" transform="scale(0.015625)"/>
      </defs>
      <use xlink:href="#DejaVuSans-74"/>
      <use xlink:href="#DejaVuSans-65" x="39.208984"/>
      <use xlink:href="#DejaVuSans-6d" x="100.732422"/>
      <use xlink:href="#DejaVuSans-70" x="198.144531"/>
      <use xlink:href="#DejaVuSans-65" x="261.621094"/>
      <use xlink:href="#DejaVuSans-72" x="323.144531"/>
      <use xlink:href="#DejaVuSans-61" x="364.257812"/>
      <use xlink:href="#DejaVuSans-74" x="425.537109"/>
      <use xlink:href="#DejaVuSans-75" x="464.746094"/>
      <use xlink:href="#DejaVuSans-72" x="528.125"/>
      <use xlink:href="#DejaVuSans-65" x="566.988281"/>
     </g>
    </g>
    <g id="line2d_39">
     <path d="M 576.79375 37.35875 
L 584.79375 37.35875 
L 592.79375 37.35875 
" style="fill: none; stroke: #ff7f0e; stroke-width: 1.4; stroke-linecap: square"/>
    </g>
    <g id="text_21">
     <!-- vibration -->
     <g transform="translate(599.19375 40.15875) scale(0.08 -0.08)">
      <defs>
       <path id="DejaVuSans-62" d="M 3116 1747 
Q 3116 2381 2855 2742 
Q 2594 3103 2138 3103 
Q 1681 3103 1420 2742 
Q 1159 2381 1159 1747 
Q 1159 1113 1420 752 
Q 1681 391 2138 391 
Q 2594 391 2855 752 
Q 3116 1113 3116 1747 
z
M 1159 2969 
Q 1341 3281 1617 3432 
Q 1894 3584 2278 3584 
Q 2916 3584 3314 3078 
Q 3713 2572 3713 1747 
Q 3713 922 3314 415 
Q 2916 -91 2278 -91 
Q 1894 -91 1617 61 
Q 1341 213 1159 525 
L 1159 0 
L 581 0 
L 581 4863 
L 1159 4863 
L 1159 2969 
z
" transform="scale(0.015625)"/>
      </defs>
      <use xlink:href="#DejaVuSans-76"/>
      <use xlink:href="#DejaVuSans-69" x="59.179688"/>
      <use xlink:href="#DejaVuSans-62" x="86.962891"/>
      <use xlink:href="#DejaVuSans-72" x="150.439453"/>
      <use xlink:href="#DejaVuSans-61" x="191.552734"/>
      <use xlink:href="#DejaVuSans-74" x="252.832031"/>
      <use xlink:href="#DejaVuSans-69" x="292.041016"/>
      <use xlink:href="#DejaVuSans-6f" x="319.824219"/>
      <use xlink:href="#DejaVuSans-6e" x="381.005859"/>
     </g>
    </g>
    <g id="line2d_40">
     <path d="M 650.745 37.35875 
L 658.745 37.35875 
L 666.745 37.35875 
" style="fill: none; stroke: #2ca02c; stroke-width: 1.4; stroke-linecap: square"/>
    </g>
    <g id="text_22">
     <!-- current -->
     <g transform="translate(673.145 40.15875) scale(0.08 -0.08)">
      <use xlink:href="#DejaVuSans-63"/>
      <use xlink:href="#DejaVuSans-75" x="54.980469"/>
      <use xlink:href="#DejaVuSans-72" x="118.359375"/>
      <use xlink:href="#DejaVuSans-72" x="157.722656"/>
      <use xlink:href="#DejaVuSans-65" x="196.585938"/>
      <use xlink:href="#DejaVuSans-6e" x="258.109375"/>
      <use xlink:href="#DejaVuSans-74" x="321.488281"/>
     </g>
    </g>
   </g>
  </g>
 </g>
 <defs>
  <clipPath id="p015225a34e">
   <rect x="30.49" y="26.88" width="678.71" height="190.36"/>
  </clipPath>
 </defs>
</svg>
