<?xml version="1.0" encoding="utf-8" standalone="no"?>
<!DOCTYPE svg PUBLIC "-//W3C//DTD SVG 1.1//EN"
  "http://www.w3.org/Graphics/SVG/1.1/DTD/svg11.dtd">
<svg xmlns:xlink="http://www.w3.org/1999/xlink" width="720pt" height="259.2pt" viewBox="0 0 720 259.2" xmlns="http://www.w3.org/2000/svg" version="1.1">
 <metadata>
  <rdf:RDF xmlns:dc="http://purl.org/dc/elements/1.1/" xmlns:cc="http://creativecommons.org/ns#" xmlns:rdf="http://www.w3.org/1999/02/22-rdf-syntax-ns#">
   <cc:Work>
    <dc:type rdf:resource="http://purl.org/dc/dcmitype/StillImage"/>
    <dc:date>2026-03-09T22:07:29.126888</dc:date>
    <dc:format>image/svg+xml</dc:format>
    <dc:creator>
     <cc:Agent>
      <dc:title>Matplotlib v3.6.3, https://matplotlib.org/</dc:title>
     </cc:Agent>
    </dc:creator>
   </cc:Work>
  </rdf:RDF>
 </metadata>
 <defs>
  <style type="text/css">*{stroke-linejoin: round; stroke-linecap: butt}</style>
 </defs>
 <g id="figure_1">
  <g id="patch_1">
   <path d="M 0 259.2 
L 720 259.2 
L 720 0 
L 0 0 
z
" style="fill: #ffffff"/>
  </g>
  <g id="axes_1">
   <g id="patch_2">
    <path d="M 36.79 217.24 
L 709.2 217.24 
L 709.2 26.88 
L 36.79 26.88 
z
" style="fill: #ffffff"/>
   </g>
   <g id="matplotlib.axis_1">
    <g id="xtick_1">
     <g id="line2d_1">
      <path d="M 67.354091 217.24 
L 67.354091 26.88 
" clip-path="url(#p133667440a)" style="fill: none; stroke: #b0b0b0; stroke-opacity: 0.25; stroke-width: 0.8; stroke-linecap: square"/>
     </g>
     <g id="line2d_2">
      <defs>
       <path id="m42d9417be6" d="M 0 0 
L 0 3.5 
" style="stroke: #000000; stroke-width: 0.8"/>
      </defs>
      <g>
       <use xlink:href="#m42d9417be6" x="67.354091" y="217.24" style="stroke: #000000; stroke-width: 0.8"/>
      </g>
     </g>
     <g id="text_1">
      <!-- 0 -->
      <g transform="translate(64.172841 231.838437) scale(0.1 -0.1)">
       <defs>
        <path id="DejaVuSans-30" d="M 2034 4250 
Q 1547 4250 1301 3770 
Q 1056 3291 1056 2328 
Q 1056 1369 1301 889 
Q 1547 409 2034 409 
Q 2525 409 2770 889 
Q 3016 1369 3016 2328 
Q 3016 3291 2770 3770 
Q 2525 4250 2034 4250 
z
M 2034 4750 
Q 2819 4750 3233 4129 
Q 3647 3509 3647 2328 
Q 3647 1150 3233 529 
Q 2819 -91 2034 -91 
Q 1250 -91 836 529 
Q 422 1150 422 2328 
Q 422 3509 836 4129 
Q 1250 4750 2034 4750 
z
" transform="scale(0.015625)"/>
       </defs>
       <use xlink:href="#DejaVuSans-30"/>
      </g>
     </g>
    </g>
    <g id="xtick_2">
     <g id="line2d_3">
      <path d="M 163.618944 217.24 
L 163.618944 26.88 
" clip-path="url(#p133667440a)" style="fill: none; stroke: #b0b0b0; stroke-opacity: 0.25; stroke-width: 0.8; stroke-linecap: square"/>
     </g>
     <g id="line2d_4">
      <g>
       <use xlink:href="#m42d9417be6" x="163.618944" y="217.24" style="stroke: #000000; stroke-width: 0.8"/>
      </g>
     </g>
     <g id="text_2">
      <!-- 20 -->
      <g transform="translate(157.256444 231.838437) scale(0.1 -0.1)">
       <defs>
        <path id="DejaVuSans-32" d="M 1228 531 
L 3431 531 
L 3431 0 
L 469 0 
L 469 531 
Q 828 903 1448 1529 
Q 2069 2156 2228 2338 
Q 2531 2678 2651 2914 
Q 2772 3150 2772 3378 
Q 2772 3750 2511 3984 
Q 2250 4219 1831 4219 
Q 1534 4219 1204 4116 
Q 875 4013 500 3803 
L 500 4441 
Q 881 4594 1212 4672 
Q 1544 4750 1819 4750 
Q 2544 4750 2975 4387 
Q 3406 4025 3406 3419 
Q 3406 3131 3298 2873 
Q 3191 2616 2906 2266 
Q 2828 2175 2409 1742 
Q 1991 1309 1228 531 
z
" transform="scale(0.015625)"/>
       </defs>
       <use xlink:href="#DejaVuSans-32"/>
       <use xlink:href="#DejaVuSans-30" x="63.623047"/>
      </g>
     </g>
    </g>
    <g id="xtick_3">
     <g id="line2d_5">
      <path d="M 259.883797 217.24 
L 259.883797 26.88 
" clip-path="url(#p133667440a)" style="fill: none; stroke: #b0b0b0; stroke-opacity: 0.25; stroke-width: 0.8; stroke-linecap: square"/>
     </g>
     <g id="line2d_6">
      <g>
       <use xlink:href="#m42d9417be6" x="259.883797" y="217.24" style="stroke: #000000; stroke-width: 0.8"/>
      </g>
     </g>
     <g id="text_3">
      <!-- 40 -->
      <g transform="translate(253.521297 231.838437) scale(0.1 -0.1)">
       <defs>
        <path id="DejaVuSans-34" d="M 2419 4116 
L 825 1625 
L 2419 1625 
L 2419 4116 
z
M 2253 4666 
L 3047 4666 
L 3047 1625 
L 3713 1625 
L 3713 1100 
L 3047 1100 
L 3047 0 
L 2419 0 
L 2419 1100 
L 313 1100 
L 313 1709 
L 2253 4666 
z
" transform="scale(0.015625)"/>
       </defs>
       <use xlink:href="#DejaVuSans-34"/>
       <use xlink:href="#DejaVuSans-30" x="63.623047"/>
      </g>
     </g>
    </g>
    <g id="xtick_4">
     <g id="line2d_7">
      <path d="M 356.148651 217.24 
L 356.148651 26.88 
" clip-path="url(#p133667440a)" style="fill: none; stroke: #b0b0b0; stroke-opacity: 0.25; stroke-width: 0.8; stroke-linecap: square"/>
     </g>
     <g id="line2d_8">
      <g>
       <use xlink:href="#m42d9417be6" x="356.148651" y="217.24" style="stroke: #000000; stroke-width: 0.8"/>
      </g>
     </g>
     <g id="text_4">
      <!-- 60 -->
      <g transform="translate(349.786151 231.838437) scale(0.1 -0.1)">
       <defs>
        <path id="DejaVuSans-36" d="M 2113 2584 
Q 1688 2584 1439 2293 
Q 1191 2003 1191 1497 
Q 1191 994 1439 701 
Q 1688 409 2113 409 
Q 2538 409 2786 701 
Q 3034 994 3034 1497 
Q 3034 2003 2786 2293 
Q 2538 2584 2113 2584 
z
M 3366 4563 
L 3366 3988 
Q 3128 4100 2886 4159 
Q 2644 4219 2406 4219 
Q 1781 4219 1451 3797 
Q 1122 3375 1075 2522 
Q 1259 2794 1537 2939 
Q 1816 3084 2150 3084 
Q 2853 3084 3261 2657 
Q 3669 2231 3669 1497 
Q 3669 778 3244 343 
Q 2819 -91 2113 -91 
Q 1303 -91 875 529 
Q 447 1150 447 2328 
Q 447 3434 972 4092 
Q 1497 4750 2381 4750 
Q 2619 4750 2861 4703 
Q 3103 4656 3366 4563 
z
" transform="scale(0.015625)"/>
       </defs>
       <use xlink:href="#DejaVuSans-36"/>
       <use xlink:href="#DejaVuSans-30" x="63.623047"/>
      </g>
     </g>
    </g>
    <g id="xtick_5">
     <g id="line2d_9">
      <path d="M 452.413504 217.24 
L 452.413504 26.88 
" clip-path="url(#p133667440a)" style="fill: none; stroke: #b0b0b0; stroke-opacity: 0.25; stroke-width: 0.8; stroke-linecap: square"/>
     </g>
     <g id="line2d_10">
      <g>
       <use xlink:href="#m42d9417be6" x="452.413504" y="217.24" style="stroke: #000000; stroke-width: 0.8"/>
      </g>
     </g>
     <g id="text_5">
      <!-- 80 -->
      <g transform="translate(446.051004 231.838437) scale(0.1 -0.1)">
       <defs>
        <path id="DejaVuSans-38" d="M 2034 2216 
Q 1584 2216 1326 1975 
Q 1069 1734 1069 1313 
Q 1069 891 1326 650 
Q 1584 409 2034 409 
Q 2484 409 2743 651 
Q 3003 894 3003 1313 
Q 3003 1734 2745 1975 
Q 2488 2216 2034 2216 
z
M 1403 2484 
Q 997 2584 770 2862 
Q 544 3141 544 3541 
Q 544 4100 942 4425 
Q 1341 4750 2034 4750 
Q 2731 4750 3128 4425 
Q 3525 4100 3525 3541 
Q 3525 3141 3298 2862 
Q 3072 2584 2669 2484 
Q 3125 2378 3379 2068 
Q 3634 1759 3634 1313 
Q 3634 634 3220 271 
Q 2806 -91 2034 -91 
Q 1263 -91 848 271 
Q 434 634 434 1313 
Q 434 1759 690 2068 
Q 947 2378 1403 2484 
z
M 1172 3481 
Q 1172 3119 1398 2916 
Q 1625 2713 2034 2713 
Q 2441 2713 2670 2916 
Q 2900 3119 2900 3481 
Q 2900 3844 2670 4047 
Q 2441 4250 2034 4250 
Q 1625 4250 1398 4047 
Q 1172 3844 1172 3481 
z
" transform="scale(0.015625)"/>
       </defs>
       <use xlink:href="#DejaVuSans-38"/>
       <use xlink:href="#DejaVuSans-30" x="63.623047"/>
      </g>
     </g>
    </g>
    <g id="xtick_6">
     <g id="line2d_11">
      <path d="M 548.678357 217.24 
L 548.678357 26.88 
" clip-path="url(#p133667440a)" style="fill: none; stroke: #b0b0b0; stroke-opacity: 0.25; stroke-width: 0.8; stroke-linecap: square"/>
     </g>
     <g id="line2d_12">
      <g>
       <use xlink:href="#m42d9417be6" x="548.678357" y="217.24" style="stroke: #000000; stroke-width: 0.8"/>
      </g>
     </g>
     <g id="text_6">
      <!-- 100 -->
      <g transform="translate(539.134607 231.838437) scale(0.1 -0.1)">
       <defs>
        <path id="DejaVuSans-31" d="M 794 531 
L 1825 531 
L 1825 4091 
L 703 3866 
L 703 4441 
L 1819 4666 
L 2450 4666 
L 2450 531 
L 3481 531 
L 3481 0 
L 794 0 
L 794 531 
z
" transform="scale(0.015625)"/>
       </defs>
       <use xlink:href="#DejaVuSans-31"/>
       <use xlink:href="#DejaVuSans-30" x="63.623047"/>
       <use xlink:href="#DejaVuSans-30" x="127.246094"/>
      </g>
     </g>
    </g>
    <g id="xtick_7">
     <g id="line2d_13">
      <path d="M 644.94321 217.24 
L 644.94321 26.88 
" clip-path="url(#p133667440a)" style="fill: none; stroke: #b0b0b0; stroke-opacity: 0.25; stroke-width: 0.8; stroke-linecap: square"/>
     </g>
     <g id="line2d_14">
      <g>
       <use xlink:href="#m42d9417be6" x="644.94321" y="217.24" style="stroke: #000000; stroke-width: 0.8"/>
      </g>
     </g>
     <g id="text_7">
      <!-- 120 -->
      <g transform="translate(635.39946 231.838437) scale(0.1 -0.1)">
       <use xlink:href="#DejaVuSans-31"/>
       <use xlink:href="#DejaVuSans-32" x="63.623047"/>
       <use xlink:href="#DejaVuSans-30" x="127.246094"/>
      </g>
     </g>
    </g>
    <g id="text_8">
     <!-- time -->
     <g transform="translate(361.698906 245.516562) scale(0.1 -0.1)">
      <defs>
       <path id="DejaVuSans-74" d="M 1172 4494 
L 1172 3500 
L 2356 3500 
L 2356 3053 
L 1172 3053 
L 1172 1153 
Q 1172 725 1289 603 
Q 1406 481 1766 481 
L 2356 481 
L 2356 0 
L 1766 0 
Q 1100 0 847 248 
Q 594 497 594 1153 
L 594 3053 
L 172 3053 
L 172 3500 
L 594 3500 
L 594 4494 
L 1172 4494 
z
" transform="scale(0.015625)"/>
       <path id="DejaVuSans-69" d="M 603 3500 
L 1178 3500 
L 1178 0 
L 603 0 
L 603 3500 
z
M 603 4863 
L 1178 4863 
L 1178 4134 
L 603 4134 
L 603 4863 
z
" transform="scale(0.015625)"/>
       <path id="DejaVuSans-6d" d="M 3328 2828 
Q 3544 3216 3844 3400 
Q 4144 3584 4550 3584 
Q 5097 3584 5394 3201 
Q 5691 2819 5691 2113 
L 5691 0 
L 5113 0 
L 5113 2094 
Q 5113 2597 4934 2840 
Q 4756 3084 4391 3084 
Q 3944 3084 3684 2787 
Q 3425 2491 3425 1978 
L 3425 0 
L 2847 0 
L 2847 2094 
Q 2847 2600 2669 2842 
Q 2491 3084 2119 3084 
Q 1678 3084 1418 2786 
Q 1159 2488 1159 1978 
L 1159 0 
L 581 0 
L 581 3500 
L 1159 3500 
L 1159 2956 
Q 1356 3278 1631 3431 
Q 1906 3584 2284 3584 
Q 2666 3584 2933 3390 
Q 3200 3197 3328 2828 
z
" transform="scale(0.015625)"/>
       <path id="DejaVuSans-65" d="M 3597 1894 
L 3597 1613 
L 953 1613 
Q 991 1019 1311 708 
Q 1631 397 2203 397 
Q 2534 397 2845 478 
Q 3156 559 3463 722 
L 3463 178 
Q 3153 47 2828 -22 
Q 2503 -91 2169 -91 
Q 1331 -91 842 396 
Q 353 884 353 1716 
Q 353 2575 817 3079 
Q 1281 3584 2069 3584 
Q 2775 3584 3186 3129 
Q 3597 2675 3597 1894 
z
M 3022 2063 
Q 3016 2534 2758 2815 
Q 2500 3097 2075 3097 
Q 1594 3097 1305 2825 
Q 1016 2553 972 2059 
L 3022 2063 
z
" transform="scale(0.015625)"/>
      </defs>
      <use xlink:href="#DejaVuSans-74"/>
      <use xlink:href="#DejaVuSans-69" x="39.208984"/>
      <use xlink:href="#DejaVuSans-6d" x="66.992188"/>
      <use xlink:href="#DejaVuSans-65" x="164.404297"/>
     </g>
    </g>
   </g>
   <g id="matplotlib.axis_2">
    <g id="ytick_1">
     <g id="line2d_15">
      <path d="M 36.79 214.715608 
L 709.2 214.715608 
" clip-path="url(#p133667440a)" style="fill: none; stroke: #b0b0b0; stroke-opacity: 0.25; stroke-width: 0.8; stroke-linecap: square"/>
     </g>
     <g id="line2d_16">
      <defs>
       <path id="m9577788c4b" d="M 0 0 
L -3.5 0 
" style="stroke: #000000; stroke-width: 0.8"/>
      </defs>
      <g>
       <use xlink:href="#m9577788c4b" x="36.79" y="214.715608" style="stroke: #000000; stroke-width: 0.8"/>
      </g>
     </g>
     <g id="text_9">
      <!-- 65 -->
      <g transform="translate(17.065 218.514827) scale(0.1 -0.1)">
       <defs>
        <path id="DejaVuSans-35" d="M 691 4666 
L 3169 4666 
L 3169 4134 
L 1269 4134 
L 1269 2991 
Q 1406 3038 1543 3061 
Q 1681 3084 1819 3084 
Q 2600 3084 3056 2656 
Q 3513 2228 3513 1497 
Q 3513 744 3044 326 
Q 2575 -91 1722 -91 
Q 1428 -91 1123 -41 
Q 819 9 494 109 
L 494 744 
Q 775 591 1075 516 
Q 1375 441 1709 441 
Q 2250 441 2565 725 
Q 2881 1009 2881 1497 
Q 2881 1984 2565 2268 
Q 2250 2553 1709 2553 
Q 1456 2553 1204 2497 
Q 953 2441 691 2322 
L 691 4666 
z
" transform="scale(0.015625)"/>
       </defs>
       <use xlink:href="#DejaVuSans-36"/>
       <use xlink:href="#DejaVuSans-35" x="63.623047"/>
      </g>
     </g>
    </g>
    <g id="ytick_2">
     <g id="line2d_17">
      <path d="M 36.79 193.086108 
L 709.2 193.086108 
" clip-path="url(#p133667440a)" style="fill: none; stroke: #b0b0b0; stroke-opacity: 0.25; stroke-width: 0.8; stroke-linecap: square"/>
     </g>
     <g id="line2d_18">
      <g>
       <use xlink:href="#m9577788c4b" x="36.79" y="193.086108" style="stroke: #000000; stroke-width: 0.8"/>
      </g>
     </g>
     <g id="text_10">
      <!-- 70 -->
      <g transform="translate(17.065 196.885327) scale(0.1 -0.1)">
       <defs>
        <path id="DejaVuSans-37" d="M 525 4666 
L 3525 4666 
L 3525 4397 
L 1831 0 
L 1172 0 
L 2766 4134 
L 525 4134 
L 525 4666 
z
" transform="scale(0.015625)"/>
       </defs>
       <use xlink:href="#DejaVuSans-37"/>
       <use xlink:href="#DejaVuSans-30" x="63.623047"/>
      </g>
     </g>
    </g>
    <g id="ytick_3">
     <g id="line2d_19">
      <path d="M 36.79 171.456609 
L 709.2 171.456609 
" clip-path="url(#p133667440a)" style="fill: none; stroke: #b0b0b0; stroke-opacity: 0.25; stroke-width: 0.8; stroke-linecap: square"/>
     </g>
     <g id="line2d_20">
      <g>
       <use xlink:href="#m9577788c4b" x="36.79" y="171.456609" style="stroke: #000000; stroke-width: 0.8"/>
      </g>
     </g>
     <g id="text_11">
      <!-- 75 -->
      <g transform="translate(17.065 175.255828) scale(0.1 -0.1)">
       <use xlink:href="#DejaVuSans-37"/>
       <use xlink:href="#DejaVuSans-35" x="63.623047"/>
      </g>
     </g>
    </g>
    <g id="ytick_4">
     <g id="line2d_21">
      <path d="M 36.79 149.82711 
L 709.2 149.82711 
" clip-path="url(#p133667440a)" style="fill: none; stroke: #b0b0b0; stroke-opacity: 0.25; stroke-width: 0.8; stroke-linecap: square"/>
     </g>
     <g id="line2d_22">
      <g>
       <use xlink:href="#m9577788c4b" x="36.79" y="149.82711" style="stroke: #000000; stroke-width: 0.8"/>
      </g>
     </g>
     <g id="text_12">
      <!-- 80 -->
      <g transform="translate(17.065 153.626328) scale(0.1 -0.1)">
       <use xlink:href="#DejaVuSans-38"/>
       <use xlink:href="#DejaVuSans-30" x="63.623047"/>
      </g>
     </g>
    </g>
    <g id="ytick_5">
     <g id="line2d_23">
      <path d="M 36.79 128.19761 
L 709.2 128.19761 
" clip-path="url(#p133667440a)" style="fill: none; stroke: #b0b0b0; stroke-opacity: 0.25; stroke-width: 0.8; stroke-linecap: square"/>
     </g>
     <g id="line2d_24">
      <g>
       <use xlink:href="#m9577788c4b" x="36.79" y="128.19761" style="stroke: #000000; stroke-width: 0.8"/>
      </g>
     </g>
     <g id="text_13">
      <!-- 85 -->
      <g transform="translate(17.065 131.996829) scale(0.1 -0.1)">
       <use xlink:href="#DejaVuSans-38"/>
       <use xlink:href="#DejaVuSans-35" x="63.623047"/>
      </g>
     </g>
    </g>
    <g id="ytick_6">
     <g id="line2d_25">
      <path d="M 36.79 106.568111 
L 709.2 106.568111 
" clip-path="url(#p133667440a)" style="fill: none; stroke: #b0b0b0; stroke-opacity: 0.25; stroke-width: 0.8; stroke-linecap: square"/>
     </g>
     <g id="line2d_26">
      <g>
       <use xlink:href="#m9577788c4b" x="36.79" y="106.568111" style="stroke: #000000; stroke-width: 0.8"/>
      </g>
     </g>
     <g id="text_14">
      <!-- 90 -->
      <g transform="translate(17.065 110.367329) scale(0.1 -0.1)">
       <defs>
        <path id="DejaVuSans-39" d="M 703 97 
L 703 672 
Q 941 559 1184 500 
Q 1428 441 1663 441 
Q 2288 441 2617 861 
Q 2947 1281 2994 2138 
Q 2813 1869 2534 1725 
Q 2256 1581 1919 1581 
Q 1219 1581 811 2004 
Q 403 2428 403 3163 
Q 403 3881 828 4315 
Q 1253 4750 1959 4750 
Q 2769 4750 3195 4129 
Q 3622 3509 3622 2328 
Q 3622 1225 3098 567 
Q 2575 -91 1691 -91 
Q 1453 -91 1209 -44 
Q 966 3 703 97 
z
M 1959 2075 
Q 2384 2075 2632 2365 
Q 2881 2656 2881 3163 
Q 2881 3666 2632 3958 
Q 2384 4250 1959 4250 
Q 1534 4250 1286 3958 
Q 1038 3666 1038 3163 
Q 1038 2656 1286 2365 
Q 1534 2075 1959 2075 
z
" transform="scale(0.015625)"/>
       </defs>
       <use xlink:href="#DejaVuSans-39"/>
       <use xlink:href="#DejaVuSans-30" x="63.623047"/>
      </g>
     </g>
    </g>
    <g id="ytick_7">
     <g id="line2d_27">
      <path d="M 36.79 84.938611 
L 709.2 84.938611 
" clip-path="url(#p133667440a)" style="fill: none; stroke: #b0b0b0; stroke-opacity: 0.25; stroke-width: 0.8; stroke-linecap: square"/>
     </g>
     <g id="line2d_28">
      <g>
       <use xlink:href="#m9577788c4b" x="36.79" y="84.938611" style="stroke: #000000; stroke-width: 0.8"/>
      </g>
     </g>
     <g id="text_15">
      <!-- 95 -->
      <g transform="translate(17.065 88.73783) scale(0.1 -0.1)">
       <use xlink:href="#DejaVuSans-39"/>
       <use xlink:href="#DejaVuSans-35" x="63.623047"/>
      </g>
     </g>
    </g>
    <g id="ytick_8">
     <g id="line2d_29">
      <path d="M 36.79 63.309112 
L 709.2 63.309112 
" clip-path="url(#p133667440a)" style="fill: none; stroke: #b0b0b0; stroke-opacity: 0.25; stroke-width: 0.8; stroke-linecap: square"/>
     </g>
     <g id="line2d_30">
      <g>
       <use xlink:href="#m9577788c4b" x="36.79" y="63.309112" style="stroke: #000000; stroke-width: 0.8"/>
      </g>
     </g>
     <g id="text_16">
      <!-- 100 -->
      <g transform="translate(10.7025 67.10833) scale(0.1 -0.1)">
       <use xlink:href="#DejaVuSans-31"/>
       <use xlink:href="#DejaVuSans-30" x="63.623047"/>
       <use xlink:href="#DejaVuSans-30" x="127.246094"/>
      </g>
     </g>
    </g>
    <g id="ytick_9">
     <g id="line2d_31">
      <path d="M 36.79 41.679612 
L 709.2 41.679612 
" clip-path="url(#p133667440a)" style="fill: none; stroke: #b0b0b0; stroke-opacity: 0.25; stroke-width: 0.8; stroke-linecap: square"/>
     </g>
     <g id="line2d_32">
      <g>
       <use xlink:href="#m9577788c4b" x="36.79" y="41.679612" style="stroke: #000000; stroke-width: 0.8"/>
      </g>
     </g>
     <g id="text_17">
      <!-- 105 -->
      <g transform="translate(10.7025 45.478831) scale(0.1 -0.1)">
       <use xlink:href="#DejaVuSans-31"/>
       <use xlink:href="#DejaVuSans-30" x="63.623047"/>
       <use xlink:href="#DejaVuSans-35" x="127.246094"/>
      </g>
     </g>
    </g>
   </g>
   <g id="line2d_33">
    <path d="M 67.354091 160.129219 
L 72.167334 156.304951 
L 76.980576 161.319943 
L 81.793819 166.833348 
L 86.607062 161.462235 
L 91.420304 155.528996 
L 96.233547 158.332802 
L 101.04679 169.832438 
L 105.860032 173.533119 
L 110.673275 168.642982 
M 129.926246 168.723508 
L 134.739488 163.557383 
L 139.552731 160.455429 
L 144.365974 156.906997 
L 149.179216 149.749666 
L 153.992459 143.138888 
L 158.805702 148.899496 
L 163.618944 136.132346 
L 168.432187 147.726363 
L 173.245429 138.19999 
L 178.058672 131.89626 
L 182.871915 135.048654 
L 187.685157 138.455215 
L 192.4984 137.384756 
L 197.311643 131.980597 
L 202.124885 125.231244 
L 206.938128 131.844147 
L 211.751371 124.583552 
L 216.564613 122.715088 
L 221.377856 116.561186 
L 226.191099 117.739124 
L 231.004341 115.925935 
L 235.817584 122.321501 
L 240.630827 118.359767 
L 245.444069 111.962804 
L 250.257312 107.239345 
L 255.070555 126.73614 
L 259.883797 108.242293 
L 264.69704 110.350677 
L 274.323525 120.420195 
L 279.136768 126.034377 
L 283.950011 115.570639 
L 288.763253 114.065056 
L 293.576496 117.281952 
L 298.389739 122.89359 
L 303.202981 131.867109 
L 308.016224 145.123543 
L 312.829467 139.25892 
L 317.642709 137.173413 
L 322.455952 153.117416 
L 327.269195 143.914727 
L 332.082437 146.06312 
L 336.89568 146.522456 
L 341.708923 161.724483 
L 346.522165 160.159106 
L 351.335408 160.488187 
L 356.148651 167.266968 
L 360.961893 148.626349 
L 365.775136 165.36314 
L 370.588379 160.668107 
L 375.401621 165.476183 
L 380.214864 153.172536 
L 385.028107 155.120074 
L 389.841349 159.655881 
L 394.654592 178.697247 
L 399.467835 162.085565 
L 404.281077 156.272556 
L 409.09432 152.136994 
L 413.907563 160.928408 
L 418.720805 141.05457 
L 423.534048 159.2348 
L 428.347291 150.496351 
L 433.160533 134.648349 
L 437.973776 135.369157 
L 442.787019 115.85 
L 447.600261 121.868748 
L 452.413504 120.561357 
L 457.226747 111.442563 
L 462.039989 108.806267 
L 466.853232 102.444768 
L 471.666475 81.669654 
L 476.479717 74.692043 
L 481.29296 62.846018 
L 486.106203 70.676086 
L 490.919445 48.08544 
L 495.732688 56.856293 
L 500.545931 39.884538 
L 505.359173 50.537511 
L 510.172416 50.228518 
L 514.985659 41.804045 
L 519.798901 35.532727 
L 524.612144 41.375288 
L 529.425387 46.972839 
L 534.238629 53.186254 
L 539.051872 55.090637 
L 543.865115 43.867921 
L 548.678357 42.904779 
L 553.4916 53.743485 
L 558.304843 63.338001 
L 563.118085 53.602009 
L 567.931328 72.696904 
L 572.744571 73.398553 
L 577.557813 69.209955 
L 582.371056 94.507861 
L 587.184298 82.012395 
L 591.997541 94.725781 
L 596.810784 96.137966 
L 601.624026 103.705831 
L 606.437269 108.071743 
L 611.250512 110.864514 
L 616.063754 126.939385 
L 620.876997 117.619969 
L 625.69024 127.86969 
L 630.503482 132.114737 
L 635.316725 134.527434 
L 640.129968 141.319997 
L 644.94321 144.637906 
L 649.756453 153.185832 
L 654.569696 166.334601 
L 659.382938 159.674022 
L 664.196181 165.889295 
L 669.009424 171.796057 
L 673.822666 161.127391 
L 678.635909 167.423236 
L 678.635909 167.423236 
" clip-path="url(#p133667440a)" style="fill: none; stroke: #1f77b4; stroke-width: 1.4; stroke-linecap: square"/>
   </g>
   <g id="line2d_34">
    <path d="M 67.354091 156.747838 
L 72.167334 157.060149 
L 76.980576 150.529569 
L 81.793819 150.370086 
L 86.607062 145.706469 
L 91.420304 153.011935 
L 96.233547 147.926668 
L 101.04679 146.475971 
L 105.860032 148.22795 
L 110.673275 166.941199 
L 115.486518 148.76728 
L 120.29976 153.881478 
L 125.113003 153.957449 
L 129.926246 154.754327 
L 134.739488 155.22735 
L 139.552731 156.095204 
L 144.365974 160.159028 
L 149.179216 168.710884 
L 153.992459 159.946435 
L 158.805702 164.090598 
L 163.618944 154.841446 
L 168.432187 162.468373 
L 173.245429 161.044605 
L 178.058672 166.382263 
L 182.871915 165.099513 
L 187.685157 162.9663 
L 192.4984 171.053162 
L 197.311643 162.193915 
L 202.124885 164.692056 
L 206.938128 170.655636 
L 211.751371 177.279596 
L 216.564613 162.465647 
L 221.377856 166.940091 
L 226.191099 168.379295 
L 231.004341 167.051717 
L 235.817584 156.558395 
L 240.630827 166.371852 
L 245.444069 165.751954 
L 250.257312 173.971762 
L 255.070555 157.713555 
L 259.883797 161.477112 
L 264.69704 160.638353 
L 269.510283 165.828952 
L 274.323525 161.18051 
L 279.136768 163.839493 
L 283.950011 162.372667 
L 288.763253 166.102023 
L 293.576496 172.685957 
L 298.389739 159.384998 
L 303.202981 174.430946 
L 308.016224 165.263742 
L 312.829467 164.684754 
L 317.642709 168.616495 
L 322.455952 159.577138 
L 327.269195 163.336201 
L 332.082437 164.082264 
L 336.89568 158.618514 
L 341.708923 163.280929 
L 346.522165 153.077079 
L 351.335408 157.937496 
L 356.148651 161.697112 
L 360.961893 168.803889 
L 365.775136 164.985405 
L 370.588379 152.057614 
L 375.401621 157.491171 
L 380.214864 158.265287 
L 385.028107 147.884911 
L 389.841349 162.763357 
L 394.654592 158.926704 
L 399.467835 158.238021 
L 404.281077 152.784958 
L 409.09432 159.494665 
L 413.907563 159.667741 
L 418.720805 165.495458 
L 423.534048 154.335653 
L 428.347291 155.203415 
L 433.160533 163.455861 
L 437.973776 162.06815 
L 442.787019 171.893574 
L 447.600261 170.213333 
L 452.413504 163.466518 
L 457.226747 172.988029 
L 462.039989 164.915983 
L 466.853232 184.268148 
L 471.666475 180.401061 
L 476.479717 187.519181 
L 481.29296 186.421368 
L 486.106203 191.92826 
L 490.919445 196.945678 
L 495.732688 200.240284 
L 500.545931 181.064018 
L 505.359173 198.167167 
L 510.172416 208.587273 
L 519.798901 194.199112 
L 524.612144 199.685768 
L 529.425387 189.201828 
L 534.238629 190.098256 
L 539.051872 195.046053 
L 543.865115 195.614851 
L 548.678357 197.268086 
L 553.4916 194.566851 
L 558.304843 197.455782 
L 563.118085 182.419599 
L 567.931328 179.25476 
L 572.744571 192.839724 
L 577.557813 191.217739 
L 582.371056 192.982444 
L 587.184298 187.480017 
L 591.997541 197.241277 
L 596.810784 185.664475 
L 601.624026 171.619513 
L 606.437269 178.783511 
L 611.250512 171.232845 
L 616.063754 176.951749 
L 620.876997 164.101637 
L 625.69024 171.133925 
L 630.503482 173.18711 
L 635.316725 157.105271 
L 640.129968 171.30621 
L 644.94321 175.340121 
L 649.756453 167.435948 
L 654.569696 168.263359 
L 659.382938 162.185933 
L 664.196181 172.233417 
L 669.009424 163.053955 
L 673.822666 162.627424 
L 678.635909 170.370671 
L 678.635909 170.370671 
" clip-path="url(#p133667440a)" style="fill: none; stroke: #ff7f0e; stroke-width: 1.4; stroke-linecap: square"/>
   </g>
   <g id="line2d_35">
    <path d="M 67.354091 72.756365 
L 72.167334 73.379148 
L 76.980576 71.306056 
L 81.793819 73.283684 
L 86.607062 73.129777 
L 91.420304 73.546766 
L 96.233547 73.109344 
L 101.04679 72.928132 
L 105.860032 72.475338 
L 110.673275 73.428168 
L 115.486518 73.219857 
L 120.29976 74.093977 
L 125.113003 73.794895 
L 129.926246 71.559944 
L 139.552731 74.053441 
L 144.365974 74.520708 
L 149.179216 74.396228 
L 153.992459 73.890462 
L 158.805702 73.969046 
L 163.618944 74.590842 
L 168.432187 75.059063 
L 173.245429 73.416843 
L 182.871915 74.80788 
L 187.685157 74.815647 
L 192.4984 75.119285 
L 197.311643 76.778806 
L 202.124885 74.890531 
L 206.938128 75.745398 
L 211.751371 75.779058 
L 216.564613 75.613492 
L 221.377856 74.783812 
L 226.191099 76.070348 
L 231.004341 76.283752 
L 235.817584 74.970241 
L 240.630827 74.918139 
L 245.444069 76.041745 
L 250.257312 75.056013 
L 255.070555 75.601175 
L 259.883797 75.197059 
L 264.69704 76.18119 
L 269.510283 74.782951 
L 274.323525 74.493401 
L 279.136768 74.802304 
L 283.950011 74.786115 
L 288.763253 77.52066 
L 293.576496 74.820603 
L 298.389739 74.916098 
L 303.202981 74.898627 
L 308.016224 75.110548 
L 312.829467 74.558981 
L 317.642709 74.217259 
L 322.455952 74.542763 
L 327.269195 74.557259 
L 332.082437 73.342763 
L 336.89568 74.742247 
L 341.708923 73.242056 
L 351.335408 74.212197 
L 356.148651 73.775626 
L 360.961893 74.08879 
L 365.775136 72.967555 
L 370.588379 73.105793 
L 375.401621 73.634409 
L 380.214864 73.94986 
L 385.028107 73.02579 
L 389.841349 72.619336 
L 394.654592 73.373627 
L 399.467835 73.137283 
L 404.281077 73.822579 
L 409.09432 73.777716 
L 413.907563 74.339826 
L 418.720805 74.38887 
L 423.534048 76.100421 
L 428.347291 75.36691 
L 433.160533 76.729168 
L 437.973776 77.276669 
L 442.787019 78.791788 
L 447.600261 79.548148 
L 452.413504 81.744543 
L 457.226747 81.653703 
L 462.039989 84.961676 
L 466.853232 85.980235 
L 476.479717 87.154208 
L 481.29296 89.191659 
L 486.106203 90.667344 
L 490.919445 92.403116 
L 495.732688 92.392412 
L 500.545931 92.879082 
L 505.359173 92.174861 
L 510.172416 93.090409 
L 514.985659 94.541421 
L 519.798901 92.143606 
L 524.612144 93.503316 
L 529.425387 93.509106 
L 534.238629 91.598468 
L 539.051872 92.148904 
L 543.865115 91.873973 
L 553.4916 90.027508 
L 558.304843 89.355712 
L 563.118085 90.283853 
L 567.931328 87.448778 
L 572.744571 87.444572 
L 577.557813 87.575962 
L 582.371056 87.090216 
L 587.184298 86.378633 
L 591.997541 84.828964 
L 596.810784 84.466151 
L 601.624026 83.667221 
L 606.437269 81.770621 
L 611.250512 81.200031 
L 616.063754 80.857602 
L 620.876997 79.326208 
L 625.69024 78.161407 
L 630.503482 79.056524 
L 635.316725 78.091398 
L 640.129968 76.499937 
L 644.94321 76.11481 
L 649.756453 75.960288 
L 654.569696 74.932413 
L 659.382938 76.021264 
L 664.196181 75.94785 
L 669.009424 75.262797 
L 673.822666 74.368171 
L 678.635909 74.741493 
L 678.635909 74.741493 
" clip-path="url(#p133667440a)" style="fill: none; stroke: #2ca02c; stroke-width: 1.4; stroke-linecap: square"/>
   </g>
   <g id="patch_3">
    <path d="M 36.79 217.24 
L 36.79 26.88 
" style="fill: none; stroke: #000000; stroke-width: 0.8; stroke-linejoin: miter; stroke-linecap: square"/>
   </g>
   <g id="patch_4">
    <path d="M 709.2 217.24 
L 709.2 26.88 
" style="fill: none; stroke: #000000; stroke-width: 0.8; stroke-linejoin: miter; stroke-linecap: square"/>
   </g>
   <g id="patch_5">
    <path d="M 36.79 217.24 
L 709.2 217.24 
" style="fill: none; stroke: #000000; stroke-width: 0.8; stroke-linejoin: miter; stroke-linecap: square"/>
   </g>
   <g id="patch_6">
    <path d="M 36.79 26.88 
L 709.2 26.88 
" style="fill: none; stroke: #000000; stroke-width: 0.8; stroke-linejoin: miter; stroke-linecap: square"/>
   </g>
   <g id="text_18">
    <!-- ICU bedside vitals preview -->
    <g transform="translate(293.630938 20.88) scale(0.12 -0.12)">
     <defs>
      <path id="DejaVuSans-49" d="M 628 4666 
L 1259 4666 
L 1259 0 
L 628 0 
L 628 4666 
z
" transform="scale(0.015625)"/>
      <path id="DejaVuSans-43" d="M 4122 4306 
L 4122 3641 
Q 3803 3938 3442 4084 
Q 3081 4231 2675 4231 
Q 1875 4231 1450 3742 
Q 1025 3253 1025 2328 
Q 1025 1406 1450 917 
Q 1875 428 2675 428 
Q 3081 428 3442 575 
Q 3803 722 4122 1019 
L 4122 359 
Q 3791 134 3420 21 
Q 3050 -91 2638 -91 
Q 1578 -91 968 557 
Q 359 1206 359 2328 
Q 359 3453 968 4101 
Q 1578 4750 2638 4750 
Q 3056 4750 3426 4639 
Q 3797 4528 4122 4306 
z
" transform="scale(0.015625)"/>
      <path id="DejaVuSans-55" d="M 556 4666 
L 1191 4666 
L 1191 1831 
Q 1191 1081 1462 751 
Q 1734 422 2344 422 
Q 2950 422 3222 751 
Q 3494 1081 3494 1831 
L 3494 4666 
L 4128 4666 
L 4128 1753 
Q 4128 841 3676 375 
Q 3225 -91 2344 -91 
Q 1459 -91 1007 375 
Q 556 841 556 1753 
L 556 4666 
z
" transform="scale(0.015625)"/>
      <path id="DejaVuSans-20" transform="scale(0.015625)"/>
      <path id="DejaVuSans-62" d="M 3116 1747 
Q 3116 2381 2855 2742 
Q 2594 3103 2138 3103 
Q 1681 3103 1420 2742 
Q 1159 2381 1159 1747 
Q 1159 1113 1420 752 
Q 1681 391 2138 391 
Q 2594 391 2855 752 
Q 3116 1113 3116 1747 
z
M 1159 2969 
Q 1341 3281 1617 3432 
Q 1894 3584 2278 3584 
Q 2916 3584 3314 3078 
Q 3713 2572 3713 1747 
Q 3713 922 3314 415 
Q 2916 -91 2278 -91 
Q 1894 -91 1617 61 
Q 1341 213 1159 525 
L 1159 0 
L 581 0 
L 581 4863 
L 1159 4863 
L 1159 2969 
z
" transform="scale(0.015625)"/>
      <path id="DejaVuSans-64" d="M 2906 2969 
L 2906 4863 
L 3481 4863 
L 3481 0 
L 2906 0 
L 2906 525 
Q 2725 213 2448 61 
Q 2172 -91 1784 -91 
Q 1150 -91 751 415 
Q 353 922 353 1747 
Q 353 2572 751 3078 
Q 1150 3584 1784 3584 
Q 2172 3584 2448 3432 
Q 2725 3281 2906 2969 
z
M 947 1747 
Q 947 1113 1208 752 
Q 1469 391 1925 391 
Q 2381 391 2643 752 
Q 2906 1113 2906 1747 
Q 2906 2381 2643 2742 
Q 2381 3103 1925 3103 
Q 1469 3103 1208 2742 
Q 947 2381 947 1747 
z
" transform="scale(0.015625)"/>
      <path id="DejaVuSans-73" d="M 2834 3397 
L 2834 2853 
Q 2591 2978 2328 3040 
Q 2066 3103 1784 3103 
Q 1356 3103 1142 2972 
Q 928 2841 928 2578 
Q 928 2378 1081 2264 
Q 1234 2150 1697 2047 
L 1894 2003 
Q 2506 1872 2764 1633 
Q 3022 1394 3022 966 
Q 3022 478 2636 193 
Q 2250 -91 1575 -91 
Q 1294 -91 989 -36 
Q 684 19 347 128 
L 347 722 
Q 666 556 975 473 
Q 1284 391 1588 391 
Q 1994 391 2212 530 
Q 2431 669 2431 922 
Q 2431 1156 2273 1281 
Q 2116 1406 1581 1522 
L 1381 1569 
Q 847 1681 609 1914 
Q 372 2147 372 2553 
Q 372 3047 722 3315 
Q 1072 3584 1716 3584 
Q 2034 3584 2315 3537 
Q 2597 3491 2834 3397 
z
" transform="scale(0.015625)"/>
      <path id="DejaVuSans-76" d="M 191 3500 
L 800 3500 
L 1894 563 
L 2988 3500 
L 3597 3500 
L 2284 0 
L 1503 0 
L 191 3500 
z
" transform="scale(0.015625)"/>
      <path id="DejaVuSans-61" d="M 2194 1759 
Q 1497 1759 1228 1600 
Q 959 1441 959 1056 
Q 959 750 1161 570 
Q 1363 391 1709 391 
Q 2188 391 2477 730 
Q 2766 1069 2766 1631 
L 2766 1759 
L 2194 1759 
z
M 3341 1997 
L 3341 0 
L 2766 0 
L 2766 531 
Q 2569 213 2275 61 
Q 1981 -91 1556 -91 
Q 1019 -91 701 211 
Q 384 513 384 1019 
Q 384 1609 779 1909 
Q 1175 2209 1959 2209 
L 2766 2209 
L 2766 2266 
Q 2766 2663 2505 2880 
Q 2244 3097 1772 3097 
Q 1472 3097 1187 3025 
Q 903 2953 641 2809 
L 641 3341 
Q 956 3463 1253 3523 
Q 1550 3584 1831 3584 
Q 2591 3584 2966 3190 
Q 3341 2797 3341 1997 
z
" transform="scale(0.015625)"/>
      <path id="DejaVuSans-6c" d="M 603 4863 
L 1178 4863 
L 1178 0 
L 603 0 
L 603 4863 
z
" transform="scale(0.015625)"/>
      <path id="DejaVuSans-70" d="M 1159 525 
L 1159 -1331 
L 581 -1331 
L 581 3500 
L 1159 3500 
L 1159 2969 
Q 1341 3281 1617 3432 
Q 1894 3584 2278 3584 
Q 2916 3584 3314 3078 
Q 3713 2572 3713 1747 
Q 3713 922 3314 415 
Q 2916 -91 2278 -91 
Q 1894 -91 1617 61 
Q 1341 213 1159 525 
z
M 3116 1747 
Q 3116 2381 2855 2742 
Q 2594 3103 2138 3103 
Q 1681 3103 1420 2742 
Q 1159 2381 1159 1747 
Q 1159 1113 1420 752 
Q 1681 391 2138 391 
Q 2594 391 2855 752 
Q 3116 1113 3116 1747 
z
" transform="scale(0.015625)"/>
      <path id="DejaVuSans-72" d="M 2631 2963 
Q 2534 3019 2420 3045 
Q 2306 3072 2169 3072 
Q 1681 3072 1420 2755 
Q 1159 2438 1159 1844 
L 1159 0 
L 581 0 
L 581 3500 
L 1159 3500 
L 1159 2956 
Q 1341 3275 1631 3429 
Q 1922 3584 2338 3584 
Q 2397 3584 2469 3576 
Q 2541 3569 2628 3553 
L 2631 2963 
z
" transform="scale(0.015625)"/>
      <path id="DejaVuSans-77" d="M 269 3500 
L 844 3500 
L 1563 769 
L 2278 3500 
L 2956 3500 
L 3675 769 
L 4391 3500 
L 4966 3500 
L 4050 0 
L 3372 0 
L 2619 2869 
L 1863 0 
L 1184 0 
L 269 3500 
z
" transform="scale(0.015625)"/>
     </defs>
     <use xlink:href="#DejaVuSans-49"/>
     <use xlink:href="#DejaVuSans-43" x="29.492188"/>
     <use xlink:href="#DejaVuSans-55" x="99.316406"/>
     <use xlink:href="#DejaVuSans-20" x="172.509766"/>
     <use xlink:href="#DejaVuSans-62" x="204.296875"/>
     <use xlink:href="#DejaVuSans-65" x="267.773438"/>
     <use xlink:href="#DejaVuSans-64" x="329.296875"/>
     <use xlink:href="#DejaVuSans-73" x="392.773438"/>
     <use xlink:href="#DejaVuSans-69" x="444.873047"/>
     <use xlink:href="#DejaVuSans-64" x="472.65625"/>
     <use xlink:href="#DejaVuSans-65" x="536.132812"/>
     <use xlink:href="#DejaVuSans-20" x="597.65625"/>
     <use xlink:href="#DejaVuSans-76" x="629.443359"/>
     <use xlink:href="#DejaVuSans-69" x="688.623047"/>
     <use xlink:href="#DejaVuSans-74" x="716.40625"/>
     <use xlink:href="#DejaVuSans-61" x="755.615234"/>
     <use xlink:href="#DejaVuSans-6c" x="816.894531"/>
     <use xlink:href="#DejaVuSans-73" x="844.677734"/>
     <use xlink:href="#DejaVuSans-20" x="896.777344"/>
     <use xlink:href="#DejaVuSans-70" x="928.564453"/>
     <use xlink:href="#DejaVuSans-72" x="992.041016"/>
     <use xlink:href="#DejaVuSans-65" x="1030.904297"/>
     <use xlink:href="#DejaVuSans-76" x="1092.427734"/>
     <use xlink:href="#DejaVuSans-69" x="1151.607422"/>
     <use xlink:href="#DejaVuSans-65" x="1179.390625"/>
     <use xlink:href="#DejaVuSans-77" x="1240.914062"/>
    </g>
   </g>
   <g id="legend_1">
    <g id="patch_7">
     <path d="M 522.625 45.245 
L 703.6 45.245 
Q 705.2 45.245 705.2 43.645 
L 705.2 32.48 
Q 705.2 30.88 703.6 30.88 
L 522.625 30.88 
Q 521.025 30.88 521.025 32.48 
L 521.025 43.645 
Q 521.025 45.245 522.625 45.245 
z
" style="fill: #ffffff; opacity: 0.8; stroke: #cccccc; stroke-linejoin: miter"/>
    </g>
    <g id="line2d_36">
     <path d="M 524.225 37.35875 
L 532.225 37.35875 
L 540.225 37.35875 
" style="fill: none; stroke: #1f77b4; stroke-width: 1.4; stroke-linecap: square"/>
    </g>
    <g id="text_19">
     <!-- heart_rate -->
     <g transform="translate(546.625 40.15875) scale(0.08 -0.08)">
      <defs>
       <path id="DejaVuSans-68" d="M 3513 2113 
L 3513 0 
L 2938 0 
L 2938 2094 
Q 2938 2591 2744 2837 
Q 2550 3084 2163 3084 
Q 1697 3084 1428 2787 
Q 1159 2491 1159 1978 
L 1159 0 
L 581 0 
L 581 4863 
L 1159 4863 
L 1159 2956 
Q 1366 3272 1645 3428 
Q 1925 3584 2291 3584 
Q 2894 3584 3203 3211 
Q 3513 2838 3513 2113 
z
" transform="scale(0.015625)"/>
       <path id="DejaVuSans-5f" d="M 3263 -1063 
L 3263 -1509 
L -63 -1509 
L -63 -1063 
L 3263 -1063 
z
" transform="scale(0.015625)"/>
      </defs>
      <use xlink:href="#DejaVuSans-68"/>
      <use xlink:href="#DejaVuSans-65" x="63.378906"/>
      <use xlink:href="#DejaVuSans-61" x="124.902344"/>
      <use xlink:href="#DejaVuSans-72" x="186.181641"/>
      <use xlink:href="#DejaVuSans-74" x="227.294922"/>
      <use xlink:href="#DejaVuSans-5f" x="266.503906"/>
      <use xlink:href="#DejaVuSans-72" x="316.503906"/>
      <use xlink:href="#DejaVuSans-61" x="357.617188"/>
      <use xlink:href="#DejaVuSans-74" x="418.896484"/>
      <use xlink:href="#DejaVuSans-65" x="458.105469"/>
     </g>
    </g>
    <g id="line2d_37">
     <path d="M 604.195 37.35875 
L 612.195 37.35875 
L 620.195 37.35875 
" style="fill: none; stroke: #ff7f0e; stroke-width: 1.4; stroke-linecap: square"/>
    </g>
    <g id="text_20">
     <!-- map -->
     <g transform="translate(626.595 40.15875) scale(0.08 -0.08)">
      <use xlink:href="#DejaVuSans-6d"/>
      <use xlink:href="#DejaVuSans-61" x="97.412109"/>
      <use xlink:href="#DejaVuSans-70" x="158.691406"/>
     </g>
    </g>
    <g id="line2d_38">
     <path d="M 660.36875 37.35875 
L 668.36875 37.35875 
L 676.36875 37.35875 
" style="fill: none; stroke: #2ca02c; stroke-width: 1.4; stroke-linecap: square"/>
    </g>
    <g id="text_21">
     <!-- spo2 -->
     <g transform="translate(682.76875 40.15875) scale(0.08 -0.08)">
      <defs>
       <path id="DejaVuSans-6f" d="M 1959 3097 
Q 1497 3097 1228 2736 
Q 959 2375 959 1747 
Q 959 1119 1226 758 
Q 1494 397 1959 397 
Q 2419 397 2687 759 
Q 2956 1122 2956 1747 
Q 2956 2369 2687 2733 
Q 2419 3097 1959 3097 
z
M 1959 3584 
Q 2709 3584 3137 3096 
Q 3566 2609 3566 1747 
Q 3566 888 3137 398 
Q 2709 -91 1959 -91 
Q 1206 -91 779 398 
Q 353 888 353 1747 
Q 353 2609 779 3096 
Q 1206 3584 1959 3584 
z
" transform="scale(0.015625)"/>
      </defs>
      <use xlink:href="#DejaVuSans-73"/>
      <use xlink:href="#DejaVuSans-70" x="52.099609"/>
      <use xlink:href="#DejaVuSans-6f" x="115.576172"/>
      <use xlink:href="#DejaVuSans-32" x="176.757812"/>
     </g>
    </g>
   </g>
  </g>
 </g>
 <defs>
  <clipPath id="p133667440a">
   <rect x="36.79" y="26.88" width="672.41" height="190.36"/>
  </clipPath>
 </defs>
</svg>
