<?xml version="1.0" encoding="utf-8" standalone="no"?>
<!DOCTYPE svg PUBLIC "-//W3C//DTD SVG 1.1//EN"
  "http://www.w3.org/Graphics/SVG/1.1/DTD/svg11.dtd">
<svg xmlns:xlink="http://www.w3.org/1999/xlink" width="720pt" height="259.2pt" viewBox="0 0 720 259.2" xmlns="http://www.w3.org/2000/svg" version="1.1">
 <metadata>
  <rdf:RDF xmlns:dc="http://purl.org/dc/elements/1.1/" xmlns:cc="http://creativecommons.org/ns#" xmlns:rdf="http://www.w3.org/1999/02/22-rdf-syntax-ns#">
   <cc:Work>
    <dc:type rdf:resource="http://purl.org/dc/dcmitype/StillImage"/>
    <dc:date>2026-03-09T22:07:29.345218</dc:date>
    <dc:format>image/svg+xml</dc:format>
    <dc:creator>
     <cc:Agent>
      <dc:title>Matplotlib v3.6.3, https://matplotlib.org/</dc:title>
     </cc:Agent>
    </dc:creator>
   </cc:Work>
  </rdf:RDF>
 </metadata>
 <defs>
  <style type="text/css">*{stroke-linejoin: round; stroke-linecap: butt}</style>
 </defs>
 <g id="figure_1">
  <g id="patch_1">
   <path d="M 0 259.2 
L 720 259.2 
L 720 0 
L 0 0 
z
" style="fill: #ffffff"/>
  </g>
  <g id="axes_1">
   <g id="patch_2">
    <path d="M 33.55 217.24 
L 709.2 217.24 
L 709.2 26.88 
L 33.55 26.88 
z
" style="fill: #ffffff"/>
   </g>
   <g id="matplotlib.axis_1">
    <g id="xtick_1">
     <g id="line2d_1">
      <path d="M 64.261364 217.24 
L 64.261364 26.88 
" clip-path="url(#p4a2259e4a3)" style="fill: none; stroke: #b0b0b0; stroke-opacity: 0.25; stroke-width: 0.8; stroke-linecap: square"/>
     </g>
     <g id="line2d_2">
      <defs>
       <path id="mba51fc50ba" d="M 0 0 
L 0 3.5 
" style="stroke: #000000; stroke-width: 0.8"/>
      </defs>
      <g>
       <use xlink:href="#mba51fc50ba" x="64.261364" y="217.24" style="stroke: #000000; stroke-width: 0.8"/>
      </g>
     </g>
     <g id="text_1">
      <!-- 0 -->
      <g transform="translate(61.080114 231.838437) scale(0.1 -0.1)">
       <defs>
        <path id="DejaVuSans-30" d="M 2034 4250 
Q 1547 4250 1301 3770 
Q 1056 3291 1056 2328 
Q 1056 1369 1301 889 
Q 1547 409 2034 409 
Q 2525 409 2770 889 
Q 3016 1369 3016 2328 
Q 3016 3291 2770 3770 
Q 2525 4250 2034 4250 
z
M 2034 4750 
Q 2819 4750 3233 4129 
Q 3647 3509 3647 2328 
Q 3647 1150 3233 529 
Q 2819 -91 2034 -91 
Q 1250 -91 836 529 
Q 422 1150 422 2328 
Q 422 3509 836 4129 
Q 1250 4750 2034 4750 
z
" transform="scale(0.015625)"/>
       </defs>
       <use xlink:href="#DejaVuSans-30"/>
      </g>
     </g>
    </g>
    <g id="xtick_2">
     <g id="line2d_3">
      <path d="M 160.990068 217.24 
L 160.990068 26.88 
" clip-path="url(#p4a2259e4a3)" style="fill: none; stroke: #b0b0b0; stroke-opacity: 0.25; stroke-width: 0.8; stroke-linecap: square"/>
     </g>
     <g id="line2d_4">
      <g>
       <use xlink:href="#mba51fc50ba" x="160.990068" y="217.24" style="stroke: #000000; stroke-width: 0.8"/>
      </g>
     </g>
     <g id="text_2">
      <!-- 20 -->
      <g transform="translate(154.627568 231.838437) scale(0.1 -0.1)">
       <defs>
        <path id="DejaVuSans-32" d="M 1228 531 
L 3431 531 
L 3431 0 
L 469 0 
L 469 531 
Q 828 903 1448 1529 
Q 2069 2156 2228 2338 
Q 2531 2678 2651 2914 
Q 2772 3150 2772 3378 
Q 2772 3750 2511 3984 
Q 2250 4219 1831 4219 
Q 1534 4219 1204 4116 
Q 875 4013 500 3803 
L 500 4441 
Q 881 4594 1212 4672 
Q 1544 4750 1819 4750 
Q 2544 4750 2975 4387 
Q 3406 4025 3406 3419 
Q 3406 3131 3298 2873 
Q 3191 2616 2906 2266 
Q 2828 2175 2409 1742 
Q 1991 1309 1228 531 
z
" transform="scale(0.015625)"/>
       </defs>
       <use xlink:href="#DejaVuSans-32"/>
       <use xlink:href="#DejaVuSans-30" x="63.623047"/>
      </g>
     </g>
    </g>
    <g id="xtick_3">
     <g id="line2d_5">
      <path d="M 257.718772 217.24 
L 257.718772 26.88 
" clip-path="url(#p4a2259e4a3)" style="fill: none; stroke: #b0b0b0; stroke-opacity: 0.25; stroke-width: 0.8; stroke-linecap: square"/>
     </g>
     <g id="line2d_6">
      <g>
       <use xlink:href="#mba51fc50ba" x="257.718772" y="217.24" style="stroke: #000000; stroke-width: 0.8"/>
      </g>
     </g>
     <g id="text_3">
      <!-- 40 -->
      <g transform="translate(251.356272 231.838437) scale(0.1 -0.1)">
       <defs>
        <path id="DejaVuSans-34" d="M 2419 4116 
L 825 1625 
L 2419 1625 
L 2419 4116 
z
M 2253 4666 
L 3047 4666 
L 3047 1625 
L 3713 1625 
L 3713 1100 
L 3047 1100 
L 3047 0 
L 2419 0 
L 2419 1100 
L 313 1100 
L 313 1709 
L 2253 4666 
z
" transform="scale(0.015625)"/>
       </defs>
       <use xlink:href="#DejaVuSans-34"/>
       <use xlink:href="#DejaVuSans-30" x="63.623047"/>
      </g>
     </g>
    </g>
    <g id="xtick_4">
     <g id="line2d_7">
      <path d="M 354.447477 217.24 
L 354.447477 26.88 
" clip-path="url(#p4a2259e4a3)" style="fill: none; stroke: #b0b0b0; stroke-opacity: 0.25; stroke-width: 0.8; stroke-linecap: square"/>
     </g>
     <g id="line2d_8">
      <g>
       <use xlink:href="#mba51fc50ba" x="354.447477" y="217.24" style="stroke: #000000; stroke-width: 0.8"/>
      </g>
     </g>
     <g id="text_4">
      <!-- 60 -->
      <g transform="translate(348.084977 231.838437) scale(0.1 -0.1)">
       <defs>
        <path id="DejaVuSans-36" d="M 2113 2584 
Q 1688 2584 1439 2293 
Q 1191 2003 1191 1497 
Q 1191 994 1439 701 
Q 1688 409 2113 409 
Q 2538 409 2786 701 
Q 3034 994 3034 1497 
Q 3034 2003 2786 2293 
Q 2538 2584 2113 2584 
z
M 3366 4563 
L 3366 3988 
Q 3128 4100 2886 4159 
Q 2644 4219 2406 4219 
Q 1781 4219 1451 3797 
Q 1122 3375 1075 2522 
Q 1259 2794 1537 2939 
Q 1816 3084 2150 3084 
Q 2853 3084 3261 2657 
Q 3669 2231 3669 1497 
Q 3669 778 3244 343 
Q 2819 -91 2113 -91 
Q 1303 -91 875 529 
Q 447 1150 447 2328 
Q 447 3434 972 4092 
Q 1497 4750 2381 4750 
Q 2619 4750 2861 4703 
Q 3103 4656 3366 4563 
z
" transform="scale(0.015625)"/>
       </defs>
       <use xlink:href="#DejaVuSans-36"/>
       <use xlink:href="#DejaVuSans-30" x="63.623047"/>
      </g>
     </g>
    </g>
    <g id="xtick_5">
     <g id="line2d_9">
      <path d="M 451.176181 217.24 
L 451.176181 26.88 
" clip-path="url(#p4a2259e4a3)" style="fill: none; stroke: #b0b0b0; stroke-opacity: 0.25; stroke-width: 0.8; stroke-linecap: square"/>
     </g>
     <g id="line2d_10">
      <g>
       <use xlink:href="#mba51fc50ba" x="451.176181" y="217.24" style="stroke: #000000; stroke-width: 0.8"/>
      </g>
     </g>
     <g id="text_5">
      <!-- 80 -->
      <g transform="translate(444.813681 231.838437) scale(0.1 -0.1)">
       <defs>
        <path id="DejaVuSans-38" d="M 2034 2216 
Q 1584 2216 1326 1975 
Q 1069 1734 1069 1313 
Q 1069 891 1326 650 
Q 1584 409 2034 409 
Q 2484 409 2743 651 
Q 3003 894 3003 1313 
Q 3003 1734 2745 1975 
Q 2488 2216 2034 2216 
z
M 1403 2484 
Q 997 2584 770 2862 
Q 544 3141 544 3541 
Q 544 4100 942 4425 
Q 1341 4750 2034 4750 
Q 2731 4750 3128 4425 
Q 3525 4100 3525 3541 
Q 3525 3141 3298 2862 
Q 3072 2584 2669 2484 
Q 3125 2378 3379 2068 
Q 3634 1759 3634 1313 
Q 3634 634 3220 271 
Q 2806 -91 2034 -91 
Q 1263 -91 848 271 
Q 434 634 434 1313 
Q 434 1759 690 2068 
Q 947 2378 1403 2484 
z
M 1172 3481 
Q 1172 3119 1398 2916 
Q 1625 2713 2034 2713 
Q 2441 2713 2670 2916 
Q 2900 3119 2900 3481 
Q 2900 3844 2670 4047 
Q 2441 4250 2034 4250 
Q 1625 4250 1398 4047 
Q 1172 3844 1172 3481 
z
" transform="scale(0.015625)"/>
       </defs>
       <use xlink:href="#DejaVuSans-38"/>
       <use xlink:href="#DejaVuSans-30" x="63.623047"/>
      </g>
     </g>
    </g>
    <g id="xtick_6">
     <g id="line2d_11">
      <path d="M 547.904885 217.24 
L 547.904885 26.88 
" clip-path="url(#p4a2259e4a3)" style="fill: none; stroke: #b0b0b0; stroke-opacity: 0.25; stroke-width: 0.8; stroke-linecap: square"/>
     </g>
     <g id="line2d_12">
      <g>
       <use xlink:href="#mba51fc50ba" x="547.904885" y="217.24" style="stroke: #000000; stroke-width: 0.8"/>
      </g>
     </g>
     <g id="text_6">
      <!-- 100 -->
      <g transform="translate(538.361135 231.838437) scale(0.1 -0.1)">
       <defs>
        <path id="DejaVuSans-31" d="M 794 531 
L 1825 531 
L 1825 4091 
L 703 3866 
L 703 4441 
L 1819 4666 
L 2450 4666 
L 2450 531 
L 3481 531 
L 3481 0 
L 794 0 
L 794 531 
z
" transform="scale(0.015625)"/>
       </defs>
       <use xlink:href="#DejaVuSans-31"/>
       <use xlink:href="#DejaVuSans-30" x="63.623047"/>
       <use xlink:href="#DejaVuSans-30" x="127.246094"/>
      </g>
     </g>
    </g>
    <g id="xtick_7">
     <g id="line2d_13">
      <path d="M 644.63359 217.24 
L 644.63359 26.88 
" clip-path="url(#p4a2259e4a3)" style="fill: none; stroke: #b0b0b0; stroke-opacity: 0.25; stroke-width: 0.8; stroke-linecap: square"/>
     </g>
     <g id="line2d_14">
      <g>
       <use xlink:href="#mba51fc50ba" x="644.63359" y="217.24" style="stroke: #000000; stroke-width: 0.8"/>
      </g>
     </g>
     <g id="text_7">
      <!-- 120 -->
      <g transform="translate(635.08984 231.838437) scale(0.1 -0.1)">
       <use xlink:href="#DejaVuSans-31"/>
       <use xlink:href="#DejaVuSans-32" x="63.623047"/>
       <use xlink:href="#DejaVuSans-30" x="127.246094"/>
      </g>
     </g>
    </g>
    <g id="text_8">
     <!-- time -->
     <g transform="translate(360.078906 245.516562) scale(0.1 -0.1)">
      <defs>
       <path id="DejaVuSans-74" d="M 1172 4494 
L 1172 3500 
L 2356 3500 
L 2356 3053 
L 1172 3053 
L 1172 1153 
Q 1172 725 1289 603 
Q 1406 481 1766 481 
L 2356 481 
L 2356 0 
L 1766 0 
Q 1100 0 847 248 
Q 594 497 594 1153 
L 594 3053 
L 172 3053 
L 172 3500 
L 594 3500 
L 594 4494 
L 1172 4494 
z
" transform="scale(0.015625)"/>
       <path id="DejaVuSans-69" d="M 603 3500 
L 1178 3500 
L 1178 0 
L 603 0 
L 603 3500 
z
M 603 4863 
L 1178 4863 
L 1178 4134 
L 603 4134 
L 603 4863 
z
" transform="scale(0.015625)"/>
       <path id="DejaVuSans-6d" d="M 3328 2828 
Q 3544 3216 3844 3400 
Q 4144 3584 4550 3584 
Q 5097 3584 5394 3201 
Q 5691 2819 5691 2113 
L 5691 0 
L 5113 0 
L 5113 2094 
Q 5113 2597 4934 2840 
Q 4756 3084 4391 3084 
Q 3944 3084 3684 2787 
Q 3425 2491 3425 1978 
L 3425 0 
L 2847 0 
L 2847 2094 
Q 2847 2600 2669 2842 
Q 2491 3084 2119 3084 
Q 1678 3084 1418 2786 
Q 1159 2488 1159 1978 
L 1159 0 
L 581 0 
L 581 3500 
L 1159 3500 
L 1159 2956 
Q 1356 3278 1631 3431 
Q 1906 3584 2284 3584 
Q 2666 3584 2933 3390 
Q 3200 3197 3328 2828 
z
" transform="scale(0.015625)"/>
       <path id="DejaVuSans-65" d="M 3597 1894 
L 3597 1613 
L 953 1613 
Q 991 1019 1311 708 
Q 1631 397 2203 397 
Q 2534 397 2845 478 
Q 3156 559 3463 722 
L 3463 178 
Q 3153 47 2828 -22 
Q 2503 -91 2169 -91 
Q 1331 -91 842 396 
Q 353 884 353 1716 
Q 353 2575 817 3079 
Q 1281 3584 2069 3584 
Q 2775 3584 3186 3129 
Q 3597 2675 3597 1894 
z
M 3022 2063 
Q 3016 2534 2758 2815 
Q 2500 3097 2075 3097 
Q 1594 3097 1305 2825 
Q 1016 2553 972 2059 
L 3022 2063 
z
" transform="scale(0.015625)"/>
      </defs>
      <use xlink:href="#DejaVuSans-74"/>
      <use xlink:href="#DejaVuSans-69" x="39.208984"/>
      <use xlink:href="#DejaVuSans-6d" x="66.992188"/>
      <use xlink:href="#DejaVuSans-65" x="164.404297"/>
     </g>
    </g>
   </g>
   <g id="matplotlib.axis_2">
    <g id="ytick_1">
     <g id="line2d_15">
      <path d="M 33.55 198.090264 
L 709.2 198.090264 
" clip-path="url(#p4a2259e4a3)" style="fill: none; stroke: #b0b0b0; stroke-opacity: 0.25; stroke-width: 0.8; stroke-linecap: square"/>
     </g>
     <g id="line2d_16">
      <defs>
       <path id="mca7ce81692" d="M 0 0 
L -3.5 0 
" style="stroke: #000000; stroke-width: 0.8"/>
      </defs>
      <g>
       <use xlink:href="#mca7ce81692" x="33.55" y="198.090264" style="stroke: #000000; stroke-width: 0.8"/>
      </g>
     </g>
     <g id="text_9">
      <!-- 2.0 -->
      <g transform="translate(10.646875 201.889483) scale(0.1 -0.1)">
       <defs>
        <path id="DejaVuSans-2e" d="M 684 794 
L 1344 794 
L 1344 0 
L 684 0 
L 684 794 
z
" transform="scale(0.015625)"/>
       </defs>
       <use xlink:href="#DejaVuSans-32"/>
       <use xlink:href="#DejaVuSans-2e" x="63.623047"/>
       <use xlink:href="#DejaVuSans-30" x="95.410156"/>
      </g>
     </g>
    </g>
    <g id="ytick_2">
     <g id="line2d_17">
      <path d="M 33.55 175.057645 
L 709.2 175.057645 
" clip-path="url(#p4a2259e4a3)" style="fill: none; stroke: #b0b0b0; stroke-opacity: 0.25; stroke-width: 0.8; stroke-linecap: square"/>
     </g>
     <g id="line2d_18">
      <g>
       <use xlink:href="#mca7ce81692" x="33.55" y="175.057645" style="stroke: #000000; stroke-width: 0.8"/>
      </g>
     </g>
     <g id="text_10">
      <!-- 2.5 -->
      <g transform="translate(10.646875 178.856864) scale(0.1 -0.1)">
       <defs>
        <path id="DejaVuSans-35" d="M 691 4666 
L 3169 4666 
L 3169 4134 
L 1269 4134 
L 1269 2991 
Q 1406 3038 1543 3061 
Q 1681 3084 1819 3084 
Q 2600 3084 3056 2656 
Q 3513 2228 3513 1497 
Q 3513 744 3044 326 
Q 2575 -91 1722 -91 
Q 1428 -91 1123 -41 
Q 819 9 494 109 
L 494 744 
Q 775 591 1075 516 
Q 1375 441 1709 441 
Q 2250 441 2565 725 
Q 2881 1009 2881 1497 
Q 2881 1984 2565 2268 
Q 2250 2553 1709 2553 
Q 1456 2553 1204 2497 
Q 953 2441 691 2322 
L 691 4666 
z
" transform="scale(0.015625)"/>
       </defs>
       <use xlink:href="#DejaVuSans-32"/>
       <use xlink:href="#DejaVuSans-2e" x="63.623047"/>
       <use xlink:href="#DejaVuSans-35" x="95.410156"/>
      </g>
     </g>
    </g>
    <g id="ytick_3">
     <g id="line2d_19">
      <path d="M 33.55 152.025026 
L 709.2 152.025026 
" clip-path="url(#p4a2259e4a3)" style="fill: none; stroke: #b0b0b0; stroke-opacity: 0.25; stroke-width: 0.8; stroke-linecap: square"/>
     </g>
     <g id="line2d_20">
      <g>
       <use xlink:href="#mca7ce81692" x="33.55" y="152.025026" style="stroke: #000000; stroke-width: 0.8"/>
      </g>
     </g>
     <g id="text_11">
      <!-- 3.0 -->
      <g transform="translate(10.646875 155.824244) scale(0.1 -0.1)">
       <defs>
        <path id="DejaVuSans-33" d="M 2597 2516 
Q 3050 2419 3304 2112 
Q 3559 1806 3559 1356 
Q 3559 666 3084 287 
Q 2609 -91 1734 -91 
Q 1441 -91 1130 -33 
Q 819 25 488 141 
L 488 750 
Q 750 597 1062 519 
Q 1375 441 1716 441 
Q 2309 441 2620 675 
Q 2931 909 2931 1356 
Q 2931 1769 2642 2001 
Q 2353 2234 1838 2234 
L 1294 2234 
L 1294 2753 
L 1863 2753 
Q 2328 2753 2575 2939 
Q 2822 3125 2822 3475 
Q 2822 3834 2567 4026 
Q 2313 4219 1838 4219 
Q 1578 4219 1281 4162 
Q 984 4106 628 3988 
L 628 4550 
Q 988 4650 1302 4700 
Q 1616 4750 1894 4750 
Q 2613 4750 3031 4423 
Q 3450 4097 3450 3541 
Q 3450 3153 3228 2886 
Q 3006 2619 2597 2516 
z
" transform="scale(0.015625)"/>
       </defs>
       <use xlink:href="#DejaVuSans-33"/>
       <use xlink:href="#DejaVuSans-2e" x="63.623047"/>
       <use xlink:href="#DejaVuSans-30" x="95.410156"/>
      </g>
     </g>
    </g>
    <g id="ytick_4">
     <g id="line2d_21">
      <path d="M 33.55 128.992406 
L 709.2 128.992406 
" clip-path="url(#p4a2259e4a3)" style="fill: none; stroke: #b0b0b0; stroke-opacity: 0.25; stroke-width: 0.8; stroke-linecap: square"/>
     </g>
     <g id="line2d_22">
      <g>
       <use xlink:href="#mca7ce81692" x="33.55" y="128.992406" style="stroke: #000000; stroke-width: 0.8"/>
      </g>
     </g>
     <g id="text_12">
      <!-- 3.5 -->
      <g transform="translate(10.646875 132.791625) scale(0.1 -0.1)">
       <use xlink:href="#DejaVuSans-33"/>
       <use xlink:href="#DejaVuSans-2e" x="63.623047"/>
       <use xlink:href="#DejaVuSans-35" x="95.410156"/>
      </g>
     </g>
    </g>
    <g id="ytick_5">
     <g id="line2d_23">
      <path d="M 33.55 105.959787 
L 709.2 105.959787 
" clip-path="url(#p4a2259e4a3)" style="fill: none; stroke: #b0b0b0; stroke-opacity: 0.25; stroke-width: 0.8; stroke-linecap: square"/>
     </g>
     <g id="line2d_24">
      <g>
       <use xlink:href="#mca7ce81692" x="33.55" y="105.959787" style="stroke: #000000; stroke-width: 0.8"/>
      </g>
     </g>
     <g id="text_13">
      <!-- 4.0 -->
      <g transform="translate(10.646875 109.759006) scale(0.1 -0.1)">
       <use xlink:href="#DejaVuSans-34"/>
       <use xlink:href="#DejaVuSans-2e" x="63.623047"/>
       <use xlink:href="#DejaVuSans-30" x="95.410156"/>
      </g>
     </g>
    </g>
    <g id="ytick_6">
     <g id="line2d_25">
      <path d="M 33.55 82.927168 
L 709.2 82.927168 
" clip-path="url(#p4a2259e4a3)" style="fill: none; stroke: #b0b0b0; stroke-opacity: 0.25; stroke-width: 0.8; stroke-linecap: square"/>
     </g>
     <g id="line2d_26">
      <g>
       <use xlink:href="#mca7ce81692" x="33.55" y="82.927168" style="stroke: #000000; stroke-width: 0.8"/>
      </g>
     </g>
     <g id="text_14">
      <!-- 4.5 -->
      <g transform="translate(10.646875 86.726386) scale(0.1 -0.1)">
       <use xlink:href="#DejaVuSans-34"/>
       <use xlink:href="#DejaVuSans-2e" x="63.623047"/>
       <use xlink:href="#DejaVuSans-35" x="95.410156"/>
      </g>
     </g>
    </g>
    <g id="ytick_7">
     <g id="line2d_27">
      <path d="M 33.55 59.894548 
L 709.2 59.894548 
" clip-path="url(#p4a2259e4a3)" style="fill: none; stroke: #b0b0b0; stroke-opacity: 0.25; stroke-width: 0.8; stroke-linecap: square"/>
     </g>
     <g id="line2d_28">
      <g>
       <use xlink:href="#mca7ce81692" x="33.55" y="59.894548" style="stroke: #000000; stroke-width: 0.8"/>
      </g>
     </g>
     <g id="text_15">
      <!-- 5.0 -->
      <g transform="translate(10.646875 63.693767) scale(0.1 -0.1)">
       <use xlink:href="#DejaVuSans-35"/>
       <use xlink:href="#DejaVuSans-2e" x="63.623047"/>
       <use xlink:href="#DejaVuSans-30" x="95.410156"/>
      </g>
     </g>
    </g>
    <g id="ytick_8">
     <g id="line2d_29">
      <path d="M 33.55 36.861929 
L 709.2 36.861929 
" clip-path="url(#p4a2259e4a3)" style="fill: none; stroke: #b0b0b0; stroke-opacity: 0.25; stroke-width: 0.8; stroke-linecap: square"/>
     </g>
     <g id="line2d_30">
      <g>
       <use xlink:href="#mca7ce81692" x="33.55" y="36.861929" style="stroke: #000000; stroke-width: 0.8"/>
      </g>
     </g>
     <g id="text_16">
      <!-- 5.5 -->
      <g transform="translate(10.646875 40.661148) scale(0.1 -0.1)">
       <use xlink:href="#DejaVuSans-35"/>
       <use xlink:href="#DejaVuSans-2e" x="63.623047"/>
       <use xlink:href="#DejaVuSans-35" x="95.410156"/>
      </g>
     </g>
    </g>
   </g>
   <g id="line2d_31">
    <path d="M 64.261364 202.942719 
L 69.097799 206.854106 
L 73.934234 203.278922 
L 78.770669 197.790031 
L 83.607105 195.882245 
L 88.44354 198.399193 
L 93.279975 197.514586 
L 98.11641 193.597385 
L 102.952845 191.416754 
L 107.789281 202.15322 
L 112.625716 197.614379 
L 117.462151 204.966209 
L 122.298586 206.027864 
L 127.135021 206.885761 
L 131.971457 205.777115 
L 136.807892 201.078608 
L 141.644327 195.530555 
L 146.480762 196.279453 
L 151.317198 187.815513 
L 156.153633 193.75187 
L 160.990068 190.273658 
L 165.826503 190.255486 
L 170.662938 196.461628 
L 175.499374 203.114712 
L 180.335809 206.726058 
L 185.172244 206.566867 
L 190.008679 203.800012 
L 194.845115 206.316221 
L 199.68155 200.143303 
L 204.517985 196.392553 
L 209.35442 190.858096 
L 219.027291 190.259423 
L 223.863726 195.994473 
L 228.700161 197.285738 
L 233.536596 110.059839 
L 238.373031 110.399883 
L 243.209467 122.094185 
L 248.045902 111.606544 
L 252.882337 110.209917 
L 257.718772 109.067347 
L 262.555208 107.405403 
L 267.391643 106.58231 
L 272.228078 98.501561 
L 277.064513 184.345068 
L 281.900948 186.945553 
L 286.737384 191.961638 
L 291.573819 199.05773 
L 296.410254 207.782217 
L 301.246689 204.896462 
L 306.083125 202.192225 
L 310.91956 207.343451 
L 315.755995 197.916334 
L 320.59243 194.221632 
L 325.428865 190.286161 
L 330.265301 195.664216 
L 335.101736 194.007568 
L 339.938171 195.193331 
L 344.774606 201.11906 
L 349.611042 193.964803 
L 354.447477 205.156838 
L 359.283912 203.667722 
L 364.120347 205.564376 
L 368.956782 196.760113 
L 373.793218 194.506626 
L 378.629653 193.471731 
L 383.466088 200.971647 
L 388.302523 191.108743 
L 393.138958 189.049516 
L 397.975394 189.885153 
L 402.811829 199.085206 
L 407.648264 193.660244 
L 412.484699 208.195376 
L 417.321135 207.317923 
L 422.15757 201.165615 
L 426.994005 202.41478 
L 431.83044 191.99319 
L 436.666875 195.11104 
L 441.503311 195.184689 
L 446.339746 192.691886 
L 451.176181 195.590162 
L 456.012616 198.293503 
L 460.849052 194.484879 
L 465.685487 198.233031 
L 470.521922 198.558566 
L 475.358357 207.660935 
L 480.194792 198.386748 
L 485.031228 203.654644 
L 489.867663 193.570406 
L 494.704098 197.400685 
L 499.540533 195.561648 
L 504.376969 190.379968 
L 509.213404 187.767919 
L 514.049839 192.991616 
L 518.886274 198.965886 
L 523.722709 205.317443 
L 528.559145 208.494208 
L 533.39558 203.027551 
L 538.232015 200.96417 
L 543.06845 203.201019 
L 547.904885 203.331715 
L 552.741321 192.588423 
L 557.577756 197.569763 
L 562.414191 193.928294 
L 567.250626 189.280463 
L 572.087062 201.877235 
L 576.923497 195.384227 
L 581.759932 202.518229 
L 586.596367 202.926579 
L 591.432802 205.159024 
L 596.269238 203.866644 
L 601.105673 200.037382 
L 605.942108 202.167204 
L 610.778543 190.569144 
L 615.614979 190.175416 
L 620.451414 188.191142 
L 625.287849 187.276271 
L 630.124284 190.682537 
L 634.960719 193.697469 
L 639.797155 200.096176 
L 644.63359 208.587273 
L 649.470025 205.377718 
L 654.30646 207.447309 
L 659.142895 207.838672 
L 663.979331 198.41999 
L 668.815766 197.901004 
L 673.652201 196.646285 
L 678.488636 195.144169 
L 678.488636 195.144169 
" clip-path="url(#p4a2259e4a3)" style="fill: none; stroke: #1f77b4; stroke-width: 1.4; stroke-linecap: square"/>
   </g>
   <g id="line2d_32">
    <path d="M 64.261364 59.223775 
L 69.097799 59.916386 
L 73.934234 59.183658 
L 78.770669 65.564477 
L 83.607105 65.765654 
L 88.44354 67.944432 
L 93.279975 71.488998 
L 98.11641 83.382578 
L 102.952845 74.692974 
L 107.789281 77.310855 
L 112.625716 76.1362 
L 117.462151 74.350334 
L 122.298586 71.631266 
L 127.135021 68.687149 
L 131.971457 67.387026 
L 136.807892 68.803192 
L 141.644327 61.671142 
L 146.480762 62.347688 
L 151.317198 56.980178 
L 156.153633 61.70585 
L 160.990068 62.608099 
L 165.826503 67.874256 
L 170.662938 70.056526 
L 175.499374 71.852048 
L 180.335809 78.773407 
L 185.172244 76.014013 
L 190.008679 78.382125 
L 194.845115 81.526763 
L 199.68155 83.935978 
L 204.517985 73.958342 
L 209.35442 73.511671 
L 214.190855 71.034881 
L 219.027291 67.047732 
L 223.863726 58.526651 
L 228.700161 61.507757 
L 233.536596 39.064941 
L 238.373031 43.253906 
L 243.209467 35.532727 
L 248.045902 39.481066 
L 252.882337 41.755208 
L 257.718772 47.691553 
L 262.555208 48.464723 
L 267.391643 52.820799 
L 272.228078 54.328386 
L 277.064513 63.708798 
L 281.900948 67.522435 
L 286.737384 59.663002 
L 291.573819 65.923637 
L 296.410254 58.551538 
L 301.246689 55.334465 
L 306.083125 54.476596 
L 310.91956 47.051814 
L 315.755995 47.123004 
L 320.59243 46.532908 
L 325.428865 43.728058 
L 330.265301 47.424147 
L 335.101736 44.198995 
L 339.938171 64.554626 
L 344.774606 69.956225 
L 349.611042 77.193953 
L 354.447477 78.282475 
L 359.283912 73.841174 
L 364.120347 78.228815 
L 368.956782 79.032069 
L 373.793218 72.765661 
L 378.629653 78.921507 
L 383.466088 74.307882 
L 388.302523 70.876175 
L 393.138958 64.774434 
L 397.975394 65.381189 
L 402.811829 63.065545 
L 407.648264 64.562737 
L 412.484699 57.949797 
L 417.321135 58.679624 
L 422.15757 64.155482 
L 426.994005 65.07456 
L 431.83044 72.217973 
L 436.666875 73.124223 
L 441.503311 70.859419 
L 446.339746 76.469933 
L 451.176181 71.703303 
L 456.012616 80.425269 
L 460.849052 75.703611 
L 465.685487 75.916736 
L 470.521922 71.125302 
L 480.194792 67.946124 
L 485.031228 65.945253 
L 489.867663 52.895848 
L 494.704098 60.340017 
L 499.540533 65.539534 
L 504.376969 62.700401 
L 509.213404 60.964774 
L 514.049839 66.907998 
L 518.886274 64.885053 
L 523.722709 69.049629 
L 528.559145 75.089008 
L 533.39558 78.150246 
L 538.232015 80.866134 
L 543.06845 80.184183 
L 547.904885 81.379109 
L 552.741321 72.047526 
L 557.577756 68.292614 
L 562.414191 73.041841 
L 567.250626 69.661091 
L 572.087062 68.43525 
L 576.923497 64.034121 
L 581.759932 68.711891 
L 586.596367 63.122818 
L 591.432802 57.323161 
L 596.269238 63.794227 
L 601.105673 63.16402 
L 605.942108 69.996678 
L 610.778543 66.953838 
L 615.614979 74.117336 
L 620.451414 77.900903 
L 625.287849 71.034269 
L 630.124284 79.146348 
L 634.960719 80.682824 
L 639.797155 74.818313 
L 644.63359 72.796511 
L 649.470025 66.622753 
L 654.30646 68.942338 
L 659.142895 61.323066 
L 663.979331 59.013187 
L 668.815766 61.971672 
L 673.652201 59.514464 
L 678.488636 63.203852 
L 678.488636 63.203852 
" clip-path="url(#p4a2259e4a3)" style="fill: none; stroke: #ff7f0e; stroke-width: 1.4; stroke-linecap: square"/>
   </g>
   <g id="line2d_33">
    <path d="M 64.261364 168.247195 
L 69.097799 173.936424 
L 73.934234 172.209489 
L 78.770669 172.737392 
L 83.607105 170.521662 
L 88.44354 169.543403 
L 93.279975 167.943573 
L 98.11641 171.664524 
L 102.952845 171.55978 
L 107.789281 175.535454 
L 112.625716 175.509421 
L 117.462151 168.686224 
L 127.135021 179.600508 
L 131.971457 182.029726 
L 136.807892 182.079825 
L 141.644327 180.440796 
L 146.480762 180.505434 
L 151.317198 182.117755 
L 156.153633 182.820195 
L 160.990068 175.707286 
L 165.826503 176.802032 
L 170.662938 177.374321 
L 175.499374 175.58996 
L 180.335809 174.869853 
L 185.172244 179.077088 
L 190.008679 170.899541 
L 194.845115 172.748232 
L 199.68155 172.033899 
L 204.517985 171.004561 
L 209.35442 168.02531 
L 214.190855 172.954452 
L 219.027291 174.43542 
L 223.863726 170.799161 
L 228.700161 171.866188 
L 233.536596 120.772886 
L 238.373031 118.700375 
L 243.209467 122.00303 
L 248.045902 121.786035 
L 252.882337 126.267764 
L 257.718772 122.003102 
L 262.555208 121.34464 
L 267.391643 122.466591 
L 272.228078 122.101513 
L 277.064513 187.671934 
L 281.900948 177.242084 
L 286.737384 176.5702 
L 291.573819 175.420404 
L 296.410254 175.102592 
L 301.246689 172.187086 
L 306.083125 170.216726 
L 310.91956 170.890061 
L 315.755995 170.791611 
L 320.59243 166.697424 
L 325.428865 172.257942 
L 330.265301 167.885696 
L 335.101736 170.724648 
L 339.938171 174.125435 
L 344.774606 174.271602 
L 349.611042 177.152557 
L 354.447477 174.910234 
L 359.283912 176.999375 
L 364.120347 180.231797 
L 368.956782 182.3715 
L 373.793218 179.695905 
L 378.629653 178.380312 
L 383.466088 180.665493 
L 388.302523 178.893302 
L 393.138958 179.849485 
L 397.975394 177.686753 
L 402.811829 177.182494 
L 407.648264 174.404463 
L 412.484699 177.127607 
L 417.321135 170.830867 
L 422.15757 171.695535 
L 426.994005 169.456519 
L 431.83044 170.508278 
L 436.666875 168.791993 
L 441.503311 172.182385 
L 446.339746 167.519479 
L 451.176181 175.055603 
L 456.012616 174.666547 
L 460.849052 173.060897 
L 465.685487 171.664262 
L 470.521922 175.824487 
L 475.358357 178.371682 
L 480.194792 182.231706 
L 485.031228 180.273363 
L 489.867663 180.436618 
L 494.704098 176.691599 
L 499.540533 178.970381 
L 504.376969 183.378778 
L 509.213404 174.315193 
L 514.049839 178.752193 
L 518.886274 178.537219 
L 523.722709 171.684817 
L 528.559145 173.764806 
L 533.39558 173.16083 
L 538.232015 170.662019 
L 543.06845 168.336488 
L 547.904885 167.436541 
L 552.741321 172.69732 
L 557.577756 165.108966 
L 562.414191 168.077543 
L 567.250626 172.005293 
L 572.087062 174.158496 
L 576.923497 175.835587 
L 581.759932 174.749398 
L 586.596367 177.957636 
L 591.432802 179.562389 
L 596.269238 177.080819 
L 601.105673 178.993108 
L 605.942108 181.299637 
L 610.778543 178.894257 
L 615.614979 177.253867 
L 620.451414 182.377789 
L 625.287849 180.372936 
L 630.124284 175.671277 
L 634.960719 174.855685 
L 639.797155 174.559573 
L 644.63359 170.972845 
L 649.470025 174.821043 
L 654.30646 174.572782 
L 659.142895 172.278281 
L 663.979331 169.442203 
L 668.815766 171.363465 
L 673.652201 170.834183 
L 678.488636 172.504094 
L 678.488636 172.504094 
" clip-path="url(#p4a2259e4a3)" style="fill: none; stroke: #2ca02c; stroke-width: 1.4; stroke-linecap: square"/>
   </g>
   <g id="patch_3">
    <path d="M 33.55 217.24 
L 33.55 26.88 
" style="fill: none; stroke: #000000; stroke-width: 0.8; stroke-linejoin: miter; stroke-linecap: square"/>
   </g>
   <g id="patch_4">
    <path d="M 709.2 217.24 
L 709.2 26.88 
" style="fill: none; stroke: #000000; stroke-width: 0.8; stroke-linejoin: miter; stroke-linecap: square"/>
   </g>
   <g id="patch_5">
    <path d="M 33.55 217.24 
L 709.2 217.24 
" style="fill: none; stroke: #000000; stroke-width: 0.8; stroke-linejoin: miter; stroke-linecap: square"/>
   </g>
   <g id="patch_6">
    <path d="M 33.55 26.88 
L 709.2 26.88 
" style="fill: none; stroke: #000000; stroke-width: 0.8; stroke-linejoin: miter; stroke-linecap: square"/>
   </g>
   <g id="text_17">
    <!-- Macro regime preview -->
    <g transform="translate(304.720625 20.88) scale(0.12 -0.12)">
     <defs>
      <path id="DejaVuSans-4d" d="M 628 4666 
L 1569 4666 
L 2759 1491 
L 3956 4666 
L 4897 4666 
L 4897 0 
L 4281 0 
L 4281 4097 
L 3078 897 
L 2444 897 
L 1241 4097 
L 1241 0 
L 628 0 
L 628 4666 
z
" transform="scale(0.015625)"/>
      <path id="DejaVuSans-61" d="M 2194 1759 
Q 1497 1759 1228 1600 
Q 959 1441 959 1056 
Q 959 750 1161 570 
Q 1363 391 1709 391 
Q 2188 391 2477 730 
Q 2766 1069 2766 1631 
L 2766 1759 
L 2194 1759 
z
M 3341 1997 
L 3341 0 
L 2766 0 
L 2766 531 
Q 2569 213 2275 61 
Q 1981 -91 1556 -91 
Q 1019 -91 701 211 
Q 384 513 384 1019 
Q 384 1609 779 1909 
Q 1175 2209 1959 2209 
L 2766 2209 
L 2766 2266 
Q 2766 2663 2505 2880 
Q 2244 3097 1772 3097 
Q 1472 3097 1187 3025 
Q 903 2953 641 2809 
L 641 3341 
Q 956 3463 1253 3523 
Q 1550 3584 1831 3584 
Q 2591 3584 2966 3190 
Q 3341 2797 3341 1997 
z
" transform="scale(0.015625)"/>
      <path id="DejaVuSans-63" d="M 3122 3366 
L 3122 2828 
Q 2878 2963 2633 3030 
Q 2388 3097 2138 3097 
Q 1578 3097 1268 2742 
Q 959 2388 959 1747 
Q 959 1106 1268 751 
Q 1578 397 2138 397 
Q 2388 397 2633 464 
Q 2878 531 3122 666 
L 3122 134 
Q 2881 22 2623 -34 
Q 2366 -91 2075 -91 
Q 1284 -91 818 406 
Q 353 903 353 1747 
Q 353 2603 823 3093 
Q 1294 3584 2113 3584 
Q 2378 3584 2631 3529 
Q 2884 3475 3122 3366 
z
" transform="scale(0.015625)"/>
      <path id="DejaVuSans-72" d="M 2631 2963 
Q 2534 3019 2420 3045 
Q 2306 3072 2169 3072 
Q 1681 3072 1420 2755 
Q 1159 2438 1159 1844 
L 1159 0 
L 581 0 
L 581 3500 
L 1159 3500 
L 1159 2956 
Q 1341 3275 1631 3429 
Q 1922 3584 2338 3584 
Q 2397 3584 2469 3576 
Q 2541 3569 2628 3553 
L 2631 2963 
z
" transform="scale(0.015625)"/>
      <path id="DejaVuSans-6f" d="M 1959 3097 
Q 1497 3097 1228 2736 
Q 959 2375 959 1747 
Q 959 1119 1226 758 
Q 1494 397 1959 397 
Q 2419 397 2687 759 
Q 2956 1122 2956 1747 
Q 2956 2369 2687 2733 
Q 2419 3097 1959 3097 
z
M 1959 3584 
Q 2709 3584 3137 3096 
Q 3566 2609 3566 1747 
Q 3566 888 3137 398 
Q 2709 -91 1959 -91 
Q 1206 -91 779 398 
Q 353 888 353 1747 
Q 353 2609 779 3096 
Q 1206 3584 1959 3584 
z
" transform="scale(0.015625)"/>
      <path id="DejaVuSans-20" transform="scale(0.015625)"/>
      <path id="DejaVuSans-67" d="M 2906 1791 
Q 2906 2416 2648 2759 
Q 2391 3103 1925 3103 
Q 1463 3103 1205 2759 
Q 947 2416 947 1791 
Q 947 1169 1205 825 
Q 1463 481 1925 481 
Q 2391 481 2648 825 
Q 2906 1169 2906 1791 
z
M 3481 434 
Q 3481 -459 3084 -895 
Q 2688 -1331 1869 -1331 
Q 1566 -1331 1297 -1286 
Q 1028 -1241 775 -1147 
L 775 -588 
Q 1028 -725 1275 -790 
Q 1522 -856 1778 -856 
Q 2344 -856 2625 -561 
Q 2906 -266 2906 331 
L 2906 616 
Q 2728 306 2450 153 
Q 2172 0 1784 0 
Q 1141 0 747 490 
Q 353 981 353 1791 
Q 353 2603 747 3093 
Q 1141 3584 1784 3584 
Q 2172 3584 2450 3431 
Q 2728 3278 2906 2969 
L 2906 3500 
L 3481 3500 
L 3481 434 
z
" transform="scale(0.015625)"/>
      <path id="DejaVuSans-70" d="M 1159 525 
L 1159 -1331 
L 581 -1331 
L 581 3500 
L 1159 3500 
L 1159 2969 
Q 1341 3281 1617 3432 
Q 1894 3584 2278 3584 
Q 2916 3584 3314 3078 
Q 3713 2572 3713 1747 
Q 3713 922 3314 415 
Q 2916 -91 2278 -91 
Q 1894 -91 1617 61 
Q 1341 213 1159 525 
z
M 3116 1747 
Q 3116 2381 2855 2742 
Q 2594 3103 2138 3103 
Q 1681 3103 1420 2742 
Q 1159 2381 1159 1747 
Q 1159 1113 1420 752 
Q 1681 391 2138 391 
Q 2594 391 2855 752 
Q 3116 1113 3116 1747 
z
" transform="scale(0.015625)"/>
      <path id="DejaVuSans-76" d="M 191 3500 
L 800 3500 
L 1894 563 
L 2988 3500 
L 3597 3500 
L 2284 0 
L 1503 0 
L 191 3500 
z
" transform="scale(0.015625)"/>
      <path id="DejaVuSans-77" d="M 269 3500 
L 844 3500 
L 1563 769 
L 2278 3500 
L 2956 3500 
L 3675 769 
L 4391 3500 
L 4966 3500 
L 4050 0 
L 3372 0 
L 2619 2869 
L 1863 0 
L 1184 0 
L 269 3500 
z
" transform="scale(0.015625)"/>
     </defs>
     <use xlink:href="#DejaVuSans-4d"/>
     <use xlink:href="#DejaVuSans-61" x="86.279297"/>
     <use xlink:href="#DejaVuSans-63" x="147.558594"/>
     <use xlink:href="#DejaVuSans-72" x="202.539062"/>
     <use xlink:href="#DejaVuSans-6f" x="241.402344"/>
     <use xlink:href="#DejaVuSans-20" x="302.583984"/>
     <use xlink:href="#DejaVuSans-72" x="334.371094"/>
     <use xlink:href="#DejaVuSans-65" x="373.234375"/>
     <use xlink:href="#DejaVuSans-67" x="434.757812"/>
     <use xlink:href="#DejaVuSans-69" x="498.234375"/>
     <use xlink:href="#DejaVuSans-6d" x="526.017578"/>
     <use xlink:href="#DejaVuSans-65" x="623.429688"/>
     <use xlink:href="#DejaVuSans-20" x="684.953125"/>
     <use xlink:href="#DejaVuSans-70" x="716.740234"/>
     <use xlink:href="#DejaVuSans-72" x="780.216797"/>
     <use xlink:href="#DejaVuSans-65" x="819.080078"/>
     <use xlink:href="#DejaVuSans-76" x="880.603516"/>
     <use xlink:href="#DejaVuSans-69" x="939.783203"/>
     <use xlink:href="#DejaVuSans-65" x="967.566406"/>
     <use xlink:href="#DejaVuSans-77" x="1029.089844"/>
    </g>
   </g>
   <g id="legend_1">
    <g id="patch_7">
     <path d="M 445.7675 45.245 
L 703.6 45.245 
Q 705.2 45.245 705.2 43.645 
L 705.2 32.48 
Q 705.2 30.88 703.6 30.88 
L 445.7675 30.88 
Q 444.1675 30.88 444.1675 32.48 
L 444.1675 43.645 
Q 444.1675 45.245 445.7675 45.245 
z
" style="fill: #ffffff; opacity: 0.8; stroke: #cccccc; stroke-linejoin: miter"/>
    </g>
    <g id="line2d_34">
     <path d="M 447.3675 37.35875 
L 455.3675 37.35875 
L 463.3675 37.35875 
" style="fill: none; stroke: #1f77b4; stroke-width: 1.4; stroke-linecap: square"/>
    </g>
    <g id="text_18">
     <!-- inflation_yoy -->
     <g transform="translate(469.7675 40.15875) scale(0.08 -0.08)">
      <defs>
       <path id="DejaVuSans-6e" d="M 3513 2113 
L 3513 0 
L 2938 0 
L 2938 2094 
Q 2938 2591 2744 2837 
Q 2550 3084 2163 3084 
Q 1697 3084 1428 2787 
Q 1159 2491 1159 1978 
L 1159 0 
L 581 0 
L 581 3500 
L 1159 3500 
L 1159 2956 
Q 1366 3272 1645 3428 
Q 1925 3584 2291 3584 
Q 2894 3584 3203 3211 
Q 3513 2838 3513 2113 
z
" transform="scale(0.015625)"/>
       <path id="DejaVuSans-66" d="M 2375 4863 
L 2375 4384 
L 1825 4384 
Q 1516 4384 1395 4259 
Q 1275 4134 1275 3809 
L 1275 3500 
L 2222 3500 
L 2222 3053 
L 1275 3053 
L 1275 0 
L 697 0 
L 697 3053 
L 147 3053 
L 147 3500 
L 697 3500 
L 697 3744 
Q 697 4328 969 4595 
Q 1241 4863 1831 4863 
L 2375 4863 
z
" transform="scale(0.015625)"/>
       <path id="DejaVuSans-6c" d="M 603 4863 
L 1178 4863 
L 1178 0 
L 603 0 
L 603 4863 
z
" transform="scale(0.015625)"/>
       <path id="DejaVuSans-5f" d="M 3263 -1063 
L 3263 -1509 
L -63 -1509 
L -63 -1063 
L 3263 -1063 
z
" transform="scale(0.015625)"/>
       <path id="DejaVuSans-79" d="M 2059 -325 
Q 1816 -950 1584 -1140 
Q 1353 -1331 966 -1331 
L 506 -1331 
L 506 -850 
L 844 -850 
Q 1081 -850 1212 -737 
Q 1344 -625 1503 -206 
L 1606 56 
L 191 3500 
L 800 3500 
L 1894 763 
L 2988 3500 
L 3597 3500 
L 2059 -325 
z
" transform="scale(0.015625)"/>
      </defs>
      <use xlink:href="#DejaVuSans-69"/>
      <use xlink:href="#DejaVuSans-6e" x="27.783203"/>
      <use xlink:href="#DejaVuSans-66" x="91.162109"/>
      <use xlink:href="#DejaVuSans-6c" x="126.367188"/>
      <use xlink:href="#DejaVuSans-61" x="154.150391"/>
      <use xlink:href="#DejaVuSans-74" x="215.429688"/>
      <use xlink:href="#DejaVuSans-69" x="254.638672"/>
      <use xlink:href="#DejaVuSans-6f" x="282.421875"/>
      <use xlink:href="#DejaVuSans-6e" x="343.603516"/>
      <use xlink:href="#DejaVuSans-5f" x="406.982422"/>
      <use xlink:href="#DejaVuSans-79" x="456.982422"/>
      <use xlink:href="#DejaVuSans-6f" x="516.162109"/>
      <use xlink:href="#DejaVuSans-79" x="577.34375"/>
     </g>
    </g>
    <g id="line2d_35">
     <path d="M 536.69 37.35875 
L 544.69 37.35875 
L 552.69 37.35875 
" style="fill: none; stroke: #ff7f0e; stroke-width: 1.4; stroke-linecap: square"/>
    </g>
    <g id="text_19">
     <!-- unemployment -->
     <g transform="translate(559.09 40.15875) scale(0.08 -0.08)">
      <defs>
       <path id="DejaVuSans-75" d="M 544 1381 
L 544 3500 
L 1119 3500 
L 1119 1403 
Q 1119 906 1312 657 
Q 1506 409 1894 409 
Q 2359 409 2629 706 
Q 2900 1003 2900 1516 
L 2900 3500 
L 3475 3500 
L 3475 0 
L 2900 0 
L 2900 538 
Q 2691 219 2414 64 
Q 2138 -91 1772 -91 
Q 1169 -91 856 284 
Q 544 659 544 1381 
z
M 1991 3584 
L 1991 3584 
z
" transform="scale(0.015625)"/>
      </defs>
      <use xlink:href="#DejaVuSans-75"/>
      <use xlink:href="#DejaVuSans-6e" x="63.378906"/>
      <use xlink:href="#DejaVuSans-65" x="126.757812"/>
      <use xlink:href="#DejaVuSans-6d" x="188.28125"/>
      <use xlink:href="#DejaVuSans-70" x="285.693359"/>
      <use xlink:href="#DejaVuSans-6c" x="349.169922"/>
      <use xlink:href="#DejaVuSans-6f" x="376.953125"/>
      <use xlink:href="#DejaVuSans-79" x="438.134766"/>
      <use xlink:href="#DejaVuSans-6d" x="497.314453"/>
      <use xlink:href="#DejaVuSans-65" x="594.726562"/>
      <use xlink:href="#DejaVuSans-6e" x="656.25"/>
      <use xlink:href="#DejaVuSans-74" x="719.628906"/>
     </g>
    </g>
    <g id="line2d_36">
     <path d="M 635.7975 37.35875 
L 643.7975 37.35875 
L 651.7975 37.35875 
" style="fill: none; stroke: #2ca02c; stroke-width: 1.4; stroke-linecap: square"/>
    </g>
    <g id="text_20">
     <!-- policy_rate -->
     <g transform="translate(658.1975 40.15875) scale(0.08 -0.08)">
      <use xlink:href="#DejaVuSans-70"/>
      <use xlink:href="#DejaVuSans-6f" x="63.476562"/>
      <use xlink:href="#DejaVuSans-6c" x="124.658203"/>
      <use xlink:href="#DejaVuSans-69" x="152.441406"/>
      <use xlink:href="#DejaVuSans-63" x="180.224609"/>
      <use xlink:href="#DejaVuSans-79" x="235.205078"/>
      <use xlink:href="#DejaVuSans-5f" x="294.384766"/>
      <use xlink:href="#DejaVuSans-72" x="344.384766"/>
      <use xlink:href="#DejaVuSans-61" x="385.498047"/>
      <use xlink:href="#DejaVuSans-74" x="446.777344"/>
      <use xlink:href="#DejaVuSans-65" x="485.986328"/>
     </g>
    </g>
   </g>
  </g>
 </g>
 <defs>
  <clipPath id="p4a2259e4a3">
   <rect x="33.55" y="26.88" width="675.65" height="190.36"/>
  </clipPath>
 </defs>
</svg>
